<svg width="125" height="74" viewBox="0 0 125 74" fill="none" xmlns="http://www.w3.org/2000/svg">
<g clip-path="url(#clip0)">
<path d="M112.519 65.1545C113.202 63.893 112.427 62.3494 111.537 61.2244C110.647 60.0993 109.561 58.9307 109.582 57.4983C109.615 55.4341 111.806 54.2242 113.558 53.1324C114.855 52.3219 116.052 51.3614 117.123 50.2711C117.552 49.833 117.968 49.3651 118.219 48.8066C118.581 48.0038 118.571 47.0863 118.548 46.2044C118.471 43.2663 118.326 40.3312 118.112 37.3991" stroke="#3F3D56" stroke-width="4" stroke-miterlimit="10"/>
<path d="M121.447 37.2385C121.422 36.7008 121.261 36.1781 120.979 35.7186C120.698 35.2591 120.305 34.8775 119.837 34.6089L119.116 36.0309L119.138 34.3107C118.483 34.1184 117.784 34.1386 117.141 34.3684C116.499 34.5982 115.946 35.0257 115.563 35.5891C115.18 36.1525 114.986 36.8228 115.01 37.5031C115.034 38.1834 115.274 38.8386 115.695 39.374C116.117 39.9094 116.698 40.2974 117.355 40.4819C118.013 40.6664 118.711 40.638 119.351 40.4006C119.991 40.1632 120.539 39.7292 120.915 39.1613C121.291 38.5933 121.477 37.9208 121.445 37.2408L121.447 37.2385Z" fill="#BE6F72"/>
<path d="M115.705 58.9697C115.366 59.624 114.811 60.1421 114.134 60.4372C113.458 60.7322 112.7 60.7863 111.987 60.5903C111.275 60.3943 110.653 59.9601 110.223 59.3606C109.794 58.7611 109.585 58.0327 109.63 57.2975C109.676 56.5624 109.973 55.8651 110.473 55.3226C110.973 54.7802 111.644 54.4255 112.375 54.3181C113.106 54.2107 113.851 54.3571 114.487 54.7328C115.122 55.1084 115.609 55.6904 115.865 56.3813L113.854 58.0132L116.066 57.5018C116.066 58.0129 115.942 58.5166 115.705 58.9697Z" fill="#BE6F72"/>
<path d="M114.116 52.7356C113.693 52.7553 113.271 52.6919 112.873 52.5489C112.475 52.406 112.109 52.1863 111.797 51.9023C111.484 51.6184 111.231 51.2759 111.051 50.8943C110.871 50.5126 110.768 50.0994 110.748 49.6782C110.723 49.1756 110.819 48.6744 111.026 48.2159C111.22 47.7862 111.505 47.4041 111.863 47.0968C112.221 46.7894 112.642 46.5642 113.097 46.4372L113.08 47.7607L113.81 46.3214H113.818C114.24 46.3017 114.662 46.3651 115.06 46.5081C115.458 46.651 115.824 46.8707 116.136 47.1547C116.449 47.4386 116.703 47.7811 116.883 48.1627C117.063 48.5444 117.165 48.9576 117.185 49.3788C117.205 49.8001 117.141 50.2211 116.998 50.6178C116.855 51.0145 116.634 51.3792 116.349 51.691C116.065 52.0028 115.721 52.2557 115.339 52.4351C114.956 52.6145 114.541 52.717 114.119 52.7367L114.116 52.7356Z" fill="#BE6F72"/>
<path d="M121.932 47.5508C121.434 47.5742 120.937 47.4819 120.481 47.2813C120.024 47.0806 119.621 46.777 119.302 46.3944C118.984 46.0119 118.759 45.5608 118.645 45.0767C118.531 44.5926 118.532 44.0887 118.646 43.6048C118.761 43.1209 118.987 42.6701 119.306 42.2881C119.625 41.906 120.029 41.6031 120.485 41.4032C120.942 41.2032 121.439 41.1117 121.937 41.1359C122.435 41.1601 122.921 41.2993 123.355 41.5426L122.78 43.0965L123.951 41.9761C124.577 42.5494 124.949 43.3465 124.986 44.1929C125.001 44.49 124.974 44.7877 124.905 45.0771C124.745 45.7551 124.369 46.3631 123.833 46.8093C123.296 47.2555 122.629 47.5157 121.932 47.5508Z" fill="#BE6F72"/>
<path opacity="0.1" d="M121.014 38.0941C120.271 38.1755 119.549 38.4061 118.802 38.4531C118.056 38.5001 117.238 38.32 116.765 37.742C116.511 37.4312 116.385 37.0367 116.17 36.6973C115.966 36.3809 115.688 36.1193 115.359 35.9358C115.152 36.3428 115.034 36.789 115.014 37.2448C114.994 37.7006 115.071 38.1555 115.241 38.5791C115.411 39.0028 115.669 39.3855 115.999 39.7018C116.329 40.018 116.722 40.2606 117.153 40.4133C117.585 40.566 118.043 40.6253 118.499 40.5874C118.955 40.5494 119.398 40.4149 119.798 40.193C120.197 39.971 120.545 39.6667 120.818 39.3003C121.09 38.9338 121.281 38.5136 121.378 38.0677C121.256 38.0723 121.135 38.0815 121.014 38.0941Z" fill="black"/>
<path opacity="0.1" d="M121.931 47.5508C121.376 47.5769 120.824 47.4593 120.328 47.2094C119.832 46.9594 119.409 46.5857 119.101 46.1246C118.792 45.6635 118.609 45.1307 118.568 44.5779C118.528 44.0252 118.631 43.4714 118.869 42.9704C119.125 43.1421 119.344 43.3618 119.516 43.6172C119.746 43.9613 119.884 44.3615 120.155 44.678C120.655 45.2663 121.512 45.459 122.289 45.4223C123.067 45.3856 123.816 45.1677 124.589 45.0966C124.696 45.0874 124.806 45.0794 124.914 45.0771C124.754 45.7566 124.376 46.3656 123.838 46.812C123.3 47.2583 122.631 47.5177 121.931 47.5508Z" fill="black"/>
<path opacity="0.1" d="M114.116 52.7356C113.693 52.7553 113.271 52.6919 112.873 52.5489C112.475 52.406 112.109 52.1862 111.797 51.9023C111.484 51.6184 111.231 51.2759 111.051 50.8942C110.871 50.5126 110.768 50.0994 110.748 49.6781C110.723 49.1756 110.819 48.6744 111.026 48.2159C111.291 48.3905 111.522 48.6116 111.707 48.8685C111.957 49.2206 112.113 49.6254 112.405 49.9511C112.948 50.5543 113.861 50.7665 114.685 50.747C115.483 50.7298 116.25 50.5348 117.043 50.474C116.847 51.1055 116.461 51.6615 115.938 52.0663C115.414 52.471 114.777 52.7047 114.116 52.7356Z" fill="black"/>
<path opacity="0.1" d="M115.705 58.9697C115.323 59.6905 114.68 60.2394 113.907 60.505C113.134 60.7705 112.288 60.7328 111.542 60.3996C110.796 60.0663 110.204 59.4624 109.888 58.7104C109.572 57.9584 109.555 57.1147 109.839 56.3503C110.105 56.5239 110.343 56.7357 110.546 56.9788C110.852 57.3515 111.054 57.7724 111.408 58.1199C112.066 58.7633 113.133 59.0293 114.075 59.0546C114.62 59.0579 115.164 59.0296 115.705 58.9697Z" fill="black"/>
<path opacity="0.1" d="M63.5081 74.0011C95.9022 74.0011 122.163 71.3825 122.163 68.1523C122.163 64.9221 95.9022 62.3035 63.5081 62.3035C31.114 62.3035 4.85342 64.9221 4.85342 68.1523C4.85342 71.3825 31.114 74.0011 63.5081 74.0011Z" fill="#BE6F72"/>
<g opacity="0.1">
<path opacity="0.1" d="M10.4485 12.7286C10.3656 12.389 10.3696 12.034 10.4603 11.6963C10.5509 11.3587 10.7252 11.0491 10.9672 10.7962L11.678 11.5497L11.3479 10.482C11.7206 10.2427 12.1598 10.1277 12.6023 10.1535C13.0448 10.1794 13.4676 10.3448 13.8096 10.6259C14.1517 10.907 14.3953 11.2892 14.5053 11.7173C14.6154 12.1454 14.5861 12.5974 14.4218 13.0079C14.2575 13.4183 13.9666 13.7661 13.5911 14.001C13.2157 14.2359 12.7751 14.3457 12.3329 14.3147C11.8908 14.2836 11.47 14.1132 11.1313 13.8281C10.7926 13.5431 10.5535 13.158 10.4485 12.7286Z" fill="#BE6F72"/>
<path opacity="0.1" d="M10.8764 13.1828C11.3537 13.0979 11.8471 13.1094 12.3198 13.0016C12.7925 12.8938 13.2709 12.6334 13.4584 12.1873C13.5596 11.9465 13.5665 11.6781 13.6378 11.427C13.7062 11.1925 13.8319 10.9785 14.0035 10.8043C14.2078 11.02 14.3636 11.2767 14.4605 11.5572C14.5574 11.8378 14.5931 12.1357 14.5654 12.4311C14.5376 12.7266 14.447 13.0127 14.2995 13.2704C14.152 13.5281 13.9511 13.7515 13.7101 13.9256C13.4692 14.0997 13.1938 14.2206 12.9023 14.2801C12.6108 14.3397 12.3099 14.3365 12.0197 14.2709C11.7295 14.2053 11.4567 14.0786 11.2195 13.8995C10.9823 13.7204 10.7861 13.4928 10.6441 13.2321C10.7211 13.2137 10.7982 13.1965 10.8764 13.1828Z" fill="black"/>
</g>
<g opacity="0.1">
<path opacity="0.1" d="M107.995 0.311918C108.226 0.148108 108.494 0.0447285 108.776 0.0112656C109.057 -0.0221973 109.342 0.015328 109.605 0.120398L109.25 0.878449L109.955 0.311918C110.247 0.518674 110.465 0.812645 110.579 1.15135C110.692 1.49004 110.695 1.85593 110.586 2.19612C110.477 2.53632 110.263 2.8332 109.973 3.04387C109.684 3.25453 109.335 3.36807 108.977 3.36807C108.619 3.36807 108.27 3.25453 107.981 3.04387C107.692 2.8332 107.478 2.53632 107.369 2.19612C107.26 1.85593 107.263 1.49004 107.376 1.15135C107.489 0.812645 107.708 0.518674 108 0.311918H107.995Z" fill="#BE6F72"/>
<path opacity="0.1" d="M107.782 0.768358C107.989 1.09979 108.127 1.47136 108.35 1.79362C108.573 2.11588 108.912 2.39455 109.305 2.40029C109.515 2.40029 109.72 2.32919 109.929 2.3074C110.125 2.28921 110.322 2.31873 110.504 2.39341C110.403 2.61085 110.257 2.8043 110.075 2.96085C109.893 3.1174 109.68 3.23344 109.449 3.30123C109.219 3.36901 108.976 3.38699 108.738 3.35395C108.5 3.32091 108.272 3.23761 108.069 3.10963C107.866 2.98164 107.692 2.8119 107.56 2.61176C107.428 2.41161 107.34 2.18565 107.302 1.94897C107.265 1.71229 107.278 1.47033 107.342 1.23925C107.406 1.00817 107.518 0.793288 107.672 0.608948C107.712 0.660555 107.749 0.71331 107.782 0.768358Z" fill="black"/>
</g>
<g opacity="0.1">
<path opacity="0.1" d="M115.086 8.5817C115.353 8.39198 115.664 8.27228 115.989 8.2336C116.315 8.19492 116.645 8.23851 116.949 8.36036L116.539 9.23768L117.355 8.58055C117.693 8.82036 117.945 9.16091 118.076 9.55304C118.207 9.94517 118.209 10.3686 118.083 10.7622C117.957 11.1558 117.708 11.4993 117.374 11.7429C117.039 11.9866 116.635 12.1179 116.221 12.1179C115.806 12.1179 115.403 11.9866 115.068 11.7429C114.733 11.4993 114.485 11.1558 114.359 10.7622C114.232 10.3686 114.235 9.94517 114.366 9.55304C114.496 9.16091 114.749 8.82036 115.086 8.58055V8.5817Z" fill="#BE6F72"/>
<path opacity="0.1" d="M114.839 9.10924C115.079 9.49342 115.239 9.92463 115.498 10.2973C115.757 10.6701 116.148 10.9923 116.602 11.0004C116.847 11.0004 117.083 10.9166 117.327 10.8914C117.554 10.87 117.784 10.9047 117.995 10.9923C117.878 11.2434 117.708 11.4666 117.498 11.6472C117.287 11.8278 117.04 11.9616 116.774 12.0398C116.508 12.1179 116.228 12.1385 115.953 12.1003C115.677 12.0621 115.414 11.9659 115.179 11.8181C114.944 11.6703 114.744 11.4743 114.591 11.2432C114.438 11.012 114.336 10.7511 114.292 10.4776C114.248 10.2042 114.263 9.92459 114.336 9.6574C114.409 9.39021 114.538 9.14157 114.715 8.92804C114.759 8.98538 114.8 9.04616 114.839 9.10924Z" fill="black"/>
</g>
<g opacity="0.2">
<path opacity="0.2" d="M17.9921 53.4351C16.9812 52.4179 17.2871 50.7172 17.823 49.388C18.359 48.0588 19.0697 46.6356 18.6419 45.2594C18.0278 43.2938 15.5815 42.7433 13.593 42.1894C12.1204 41.7785 10.7016 41.1953 9.36642 40.4519C8.83048 40.1538 8.29914 39.8212 7.90006 39.3556C7.32501 38.6858 7.07544 37.8039 6.84772 36.9472C6.08943 34.1077 5.39937 31.2513 4.77756 28.3782" stroke="#3F3D56" stroke-width="4" stroke-miterlimit="10"/>
<path opacity="0.2" d="M1.53083 29.1649C1.40305 28.6419 1.40917 28.0952 1.54865 27.5752C1.68812 27.0552 1.95645 26.5785 2.32899 26.1889L3.42272 27.3506L2.91554 25.7049C3.48896 25.3354 4.16534 25.1572 4.84698 25.196C5.52863 25.2348 6.18027 25.4886 6.7078 25.9208C7.23532 26.353 7.61143 26.9412 7.78181 27.6005C7.95219 28.2598 7.90803 28.956 7.65569 29.5886C7.40336 30.2212 6.95591 30.7575 6.37797 31.12C5.80003 31.4825 5.12151 31.6524 4.44039 31.6052C3.75928 31.5581 3.11082 31.2963 2.58866 30.8576C2.0665 30.419 1.69767 29.8262 1.53543 29.1649H1.53083Z" fill="#BE6F72"/>
<path opacity="0.2" d="M13.1894 48.3971C13.699 48.9306 14.3771 49.2731 15.1099 49.3671C15.8427 49.4612 16.5856 49.3011 17.2141 48.9137C17.8426 48.5264 18.3184 47.9353 18.5617 47.2396C18.805 46.5439 18.8009 45.786 18.5503 45.0929C18.2996 44.3999 17.8176 43.8138 17.185 43.4331C16.5524 43.0524 15.8078 42.9002 15.076 43.002C14.3443 43.1038 13.6699 43.4534 13.1659 43.9922C12.662 44.5311 12.3592 45.2263 12.3084 45.9613L14.6994 46.9602L12.4326 47.092C12.5763 47.5813 12.8358 48.0289 13.1894 48.3971Z" fill="#BE6F72"/>
<path opacity="0.2" d="M12.9501 41.9692C13.7187 41.7823 14.3914 41.3198 14.8398 40.6699C15.2883 40.02 15.4812 39.2282 15.3816 38.4456C15.2821 37.663 14.8972 36.9443 14.3002 36.4266C13.7033 35.909 12.9361 35.6285 12.1451 35.6388L12.5349 36.9003L11.4366 35.7282H11.4285C11.0129 35.8235 10.6204 36.0002 10.2738 36.248C9.92726 36.4958 9.63349 36.8098 9.40959 37.1717C9.18568 37.5337 9.0361 37.9363 8.96953 38.3564C8.90296 38.7764 8.92072 39.2055 9.02179 39.6186C9.12285 40.0318 9.30521 40.4208 9.55827 40.7631C9.81134 41.1054 10.1301 41.3941 10.496 41.6126C10.8618 41.8311 11.2676 41.9749 11.6897 42.0357C12.1118 42.0965 12.5418 42.0732 12.9547 41.9669L12.9501 41.9692Z" fill="#BE6F72"/>
<path opacity="0.2" d="M3.98399 39.1927C4.46842 39.075 4.91882 38.8467 5.29969 38.5258C5.68055 38.2049 5.98149 37.8002 6.17878 37.3435C6.37607 36.8869 6.46433 36.3908 6.4366 35.8944C6.40887 35.398 6.26591 34.9147 6.01899 34.4828C5.77206 34.0508 5.42791 33.682 5.01366 33.4052C4.59941 33.1285 4.12638 32.9515 3.63182 32.8881C3.13727 32.8247 2.63471 32.8767 2.16375 33.04C1.69279 33.2033 1.26628 33.4734 0.917842 33.829L1.90347 35.1651L0.463556 34.4185C0.0234677 35.1443 -0.109727 36.0146 0.0932262 36.8383C0.162941 37.1276 0.27329 37.4056 0.421003 37.664C0.767628 38.2703 1.3029 38.7475 1.94578 39.0233C2.58867 39.2991 3.30417 39.3586 3.98399 39.1927Z" fill="#BE6F72"/>
<path opacity="0.1" d="M2.18863 29.8633C2.92469 29.7326 3.68375 29.7486 4.41176 29.5846C5.13976 29.4206 5.87582 29.0181 6.16449 28.3311C6.32091 27.9607 6.33126 27.5467 6.44052 27.1602C6.54668 26.7997 6.73977 26.4705 7.00291 26.2015C7.31458 26.5342 7.55173 26.9293 7.69861 27.3604C7.8455 27.7915 7.89876 28.2488 7.85486 28.702C7.81097 29.1552 7.67092 29.5939 7.44401 29.9891C7.21711 30.3842 6.90853 30.7266 6.53876 30.9938C6.16898 31.2609 5.74647 31.4465 5.29925 31.5384C4.85203 31.6303 4.39033 31.6262 3.94479 31.5266C3.49925 31.427 3.08006 31.234 2.71502 30.9605C2.34998 30.6869 2.04745 30.3391 1.8275 29.9401C1.94941 29.9115 2.06902 29.8897 2.18863 29.8633Z" fill="black"/>
<path opacity="0.1" d="M3.98394 39.1927C4.52393 39.0616 5.02069 38.7933 5.42589 38.414C5.83109 38.0346 6.13094 37.5572 6.29627 37.0281C6.4616 36.499 6.48679 35.9362 6.36938 35.3945C6.25198 34.8528 5.99597 34.3506 5.62627 33.9368C5.42941 34.1736 5.28059 34.4462 5.18808 34.7396C5.06617 35.1341 5.04547 35.5561 4.87641 35.9369C4.56128 36.6422 3.79417 37.0677 3.03626 37.2523C2.27835 37.4369 1.49859 37.4369 0.73608 37.586C0.630272 37.6078 0.524464 37.6307 0.418655 37.6594C0.764712 38.267 1.30006 38.7454 1.94349 39.0221C2.58691 39.2989 3.30329 39.3587 3.98394 39.1927Z" fill="black"/>
<path opacity="0.1" d="M12.95 41.9692C13.4844 41.8392 13.9764 41.5749 14.3792 41.2014C14.782 40.828 15.0822 40.3579 15.2512 39.836C15.4201 39.314 15.4522 38.7576 15.3443 38.2199C15.2364 37.6821 14.9922 37.1808 14.6349 36.7638C14.4301 37.0055 14.2714 37.2827 14.1668 37.5815C14.0265 37.9897 13.9909 38.4221 13.8022 38.8166C13.4572 39.5471 12.636 40.0082 11.8471 40.2215C11.0765 40.429 10.2853 40.4577 9.5078 40.6228C9.87338 41.1727 10.3999 41.5969 11.0158 41.8378C11.6317 42.0787 12.307 42.1246 12.95 41.9692Z" fill="black"/>
<path opacity="0.1" d="M13.1893 48.3972C13.7578 48.9909 14.5326 49.345 15.3547 49.3867C16.1768 49.4285 16.9837 49.1547 17.6097 48.6217C18.2357 48.0886 18.6332 47.3368 18.7206 46.5206C18.808 45.7044 18.5786 44.8858 18.0795 44.233C17.8733 44.474 17.7046 44.7447 17.5792 45.0358C17.3906 45.4785 17.317 45.9395 17.0743 46.3719C16.6258 47.1746 15.6816 47.7297 14.7811 48.0199C14.2583 48.1763 13.7268 48.3023 13.1893 48.3972Z" fill="black"/>
</g>
<path d="M113.105 8.02545L113.079 65.1706C109.054 65.1706 113.079 65.1706 109.015 65.1912H93.89L93.844 65.1729C91.587 64.2548 89.0591 64.2548 86.802 65.1729L86.7641 65.1889H71.607C71.0964 64.9825 70.598 64.7562 70.1119 64.51C68.8498 63.8772 67.4567 63.5476 66.044 63.5476C64.6313 63.5476 63.2382 63.8772 61.9762 64.51C61.4862 64.7554 60.9878 64.9817 60.481 65.1889H45.3125L45.2745 65.1729C43.0175 64.2548 40.4896 64.2548 38.2325 65.1729L38.1865 65.1912H23.064C20.4785 64.1418 18.1371 62.5733 16.1853 60.5833V8.02545H113.105Z" fill="white"/>
<path d="M113.105 5.79033V8.25486H16.1841V5.79033C16.184 5.67915 16.2058 5.56902 16.2484 5.46627C16.291 5.36352 16.3536 5.27015 16.4324 5.19153C16.5112 5.11291 16.6049 5.05058 16.7079 5.0081C16.811 4.96562 16.9214 4.94383 17.0329 4.94398H112.254C112.365 4.94352 112.476 4.96509 112.579 5.00743C112.683 5.04978 112.776 5.11207 112.856 5.19072C112.935 5.26937 112.997 5.36283 113.04 5.46574C113.083 5.56864 113.105 5.67895 113.105 5.79033Z" fill="#EDEDF4"/>
<path opacity="0.8" d="M17.7206 6.97039C17.9398 6.97039 18.1174 6.79325 18.1174 6.57473C18.1174 6.35622 17.9398 6.17908 17.7206 6.17908C17.5015 6.17908 17.3239 6.35622 17.3239 6.57473C17.3239 6.79325 17.5015 6.97039 17.7206 6.97039Z" fill="#FA5959"/>
<path opacity="0.8" d="M18.8108 6.97039C19.0299 6.97039 19.2076 6.79325 19.2076 6.57473C19.2076 6.35622 19.0299 6.17908 18.8108 6.17908C18.5917 6.17908 18.414 6.35622 18.414 6.57473C18.414 6.79325 18.5917 6.97039 18.8108 6.97039Z" fill="#FED253"/>
<path opacity="0.8" d="M19.9 6.97039C20.1192 6.97039 20.2968 6.79325 20.2968 6.57473C20.2968 6.35622 20.1192 6.17908 19.9 6.17908C19.6809 6.17908 19.5033 6.35622 19.5033 6.57473C19.5033 6.79325 19.6809 6.97039 19.9 6.97039Z" fill="#8CCF4D"/>
<path d="M28.8903 8.25482V65.3059C28.8903 65.3059 23.7149 65.2852 16.1853 65.1706V8.25482H28.8903Z" fill="#EDEDF4"/>
<path d="M113.246 8.25482V65.4C113.198 65.4355 108.618 65.3472 108.416 65.4206H100.538V8.25482H113.246Z" fill="#EDEDF4"/>
<path d="M27.1376 11.0405H17.9368V12.1873H27.1376V11.0405Z" fill="white"/>
<path d="M27.1376 13.6782H17.9368V14.825H27.1376V13.6782Z" fill="white"/>
<path d="M27.1376 16.3159H17.9368V17.4627H27.1376V16.3159Z" fill="white"/>
<path d="M27.1376 18.9536H17.9368V20.1004H27.1376V18.9536Z" fill="white"/>
<path d="M27.1376 21.5912H17.9368V22.7381H27.1376V21.5912Z" fill="white"/>
<path d="M27.1652 29.3896H17.9644V30.5365H27.1652V29.3896Z" fill="white"/>
<path d="M27.1652 32.0273H17.9644V33.1742H27.1652V32.0273Z" fill="white"/>
<path d="M27.1652 34.665H17.9644V35.8119H27.1652V34.665Z" fill="white"/>
<path d="M27.1652 37.3027H17.9644V38.4496H27.1652V37.3027Z" fill="white"/>
<path d="M27.1652 39.9404H17.9644V41.0872H27.1652V39.9404Z" fill="white"/>
<path d="M27.1917 47.7389H17.991V48.8857H27.1917V47.7389Z" fill="white"/>
<path d="M27.1917 50.3766H17.991V51.5234H27.1917V50.3766Z" fill="white"/>
<path d="M27.1917 53.0143H17.991V54.1611H27.1917V53.0143Z" fill="white"/>
<path d="M27.1917 55.652H17.991V56.7988H27.1917V55.652Z" fill="white"/>
<path d="M27.1917 58.2897H17.991V59.4365H27.1917V58.2897Z" fill="white"/>
<path d="M102.381 8.74683H101.231V9.89365H102.381V8.74683Z" fill="white"/>
<path d="M103.761 8.74683H102.611V9.89365H103.761V8.74683Z" fill="white"/>
<path d="M105.141 8.74683H103.991V9.89365H105.141V8.74683Z" fill="white"/>
<path d="M106.521 8.74683H105.371V9.89365H106.521V8.74683Z" fill="white"/>
<path d="M107.902 8.74683H106.752V9.89365H107.902V8.74683Z" fill="white"/>
<path d="M102.381 13.5635H101.231V14.7103H102.381V13.5635Z" fill="white"/>
<path d="M103.761 13.5635H102.611V14.7103H103.761V13.5635Z" fill="white"/>
<path d="M105.141 13.5635H103.991V14.7103H105.141V13.5635Z" fill="white"/>
<path d="M106.521 13.5635H105.371V14.7103H106.521V13.5635Z" fill="white"/>
<path d="M107.902 13.5635H106.752V14.7103H107.902V13.5635Z" fill="white"/>
<path d="M102.381 18.3801H101.231V19.5269H102.381V18.3801Z" fill="white"/>
<path d="M103.761 18.3801H102.611V19.5269H103.761V18.3801Z" fill="white"/>
<path d="M105.141 18.3801H103.991V19.5269H105.141V18.3801Z" fill="white"/>
<path d="M106.521 18.3801H105.371V19.5269H106.521V18.3801Z" fill="white"/>
<path d="M107.902 18.3801H106.752V19.5269H107.902V18.3801Z" fill="white"/>
<path d="M102.381 23.1968H101.231V24.3437H102.381V23.1968Z" fill="white"/>
<path d="M103.761 23.1968H102.611V24.3437H103.761V23.1968Z" fill="white"/>
<path d="M105.141 23.1968H103.991V24.3437H105.141V23.1968Z" fill="white"/>
<path d="M106.521 23.1968H105.371V24.3437H106.521V23.1968Z" fill="white"/>
<path d="M107.902 23.1968H106.752V24.3437H107.902V23.1968Z" fill="white"/>
<path d="M102.381 28.0135H101.231V29.1603H102.381V28.0135Z" fill="white"/>
<path d="M103.761 28.0135H102.611V29.1603H103.761V28.0135Z" fill="white"/>
<path d="M105.141 28.0135H103.991V29.1603H105.141V28.0135Z" fill="white"/>
<path d="M106.521 28.0135H105.371V29.1603H106.521V28.0135Z" fill="white"/>
<path d="M107.902 28.0135H106.752V29.1603H107.902V28.0135Z" fill="white"/>
<path d="M102.381 32.8301H101.231V33.977H102.381V32.8301Z" fill="white"/>
<path d="M103.761 32.8301H102.611V33.977H103.761V32.8301Z" fill="white"/>
<path d="M105.141 32.8301H103.991V33.977H105.141V32.8301Z" fill="white"/>
<path d="M106.521 32.8301H105.371V33.977H106.521V32.8301Z" fill="white"/>
<path d="M107.902 32.8301H106.752V33.977H107.902V32.8301Z" fill="white"/>
<path d="M102.381 37.6468H101.231V38.7936H102.381V37.6468Z" fill="white"/>
<path d="M103.761 37.6468H102.611V38.7936H103.761V37.6468Z" fill="white"/>
<path d="M105.141 37.6468H103.991V38.7936H105.141V37.6468Z" fill="white"/>
<path d="M106.521 37.6468H105.371V38.7936H106.521V37.6468Z" fill="white"/>
<path d="M107.902 37.6468H106.752V38.7936H107.902V37.6468Z" fill="white"/>
<path d="M102.381 42.4634H101.231V43.6103H102.381V42.4634Z" fill="white"/>
<path d="M103.761 42.4634H102.611V43.6103H103.761V42.4634Z" fill="white"/>
<path d="M105.141 42.4634H103.991V43.6103H105.141V42.4634Z" fill="white"/>
<path d="M106.521 42.4634H105.371V43.6103H106.521V42.4634Z" fill="white"/>
<path d="M107.902 42.4634H106.752V43.6103H107.902V42.4634Z" fill="white"/>
<path d="M102.381 47.2802H101.231V48.427H102.381V47.2802Z" fill="white"/>
<path d="M103.761 47.2802H102.611V48.427H103.761V47.2802Z" fill="white"/>
<path d="M105.141 47.2802H103.991V48.427H105.141V47.2802Z" fill="white"/>
<path d="M106.521 47.2802H105.371V48.427H106.521V47.2802Z" fill="white"/>
<path d="M107.902 47.2802H106.752V48.427H107.902V47.2802Z" fill="white"/>
<path d="M102.381 52.0968H101.231V53.2436H102.381V52.0968Z" fill="white"/>
<path d="M103.761 52.0968H102.611V53.2436H103.761V52.0968Z" fill="white"/>
<path d="M105.141 52.0968H103.991V53.2436H105.141V52.0968Z" fill="white"/>
<path d="M106.521 52.0968H105.371V53.2436H106.521V52.0968Z" fill="white"/>
<path d="M107.902 52.0968H106.752V53.2436H107.902V52.0968Z" fill="white"/>
<path d="M102.381 56.9135H101.231V58.0603H102.381V56.9135Z" fill="white"/>
<path d="M103.761 56.9135H102.611V58.0603H103.761V56.9135Z" fill="white"/>
<path d="M105.141 56.9135H103.991V58.0603H105.141V56.9135Z" fill="white"/>
<path d="M106.521 56.9135H105.371V58.0603H106.521V56.9135Z" fill="white"/>
<path d="M107.902 56.9135H106.752V58.0603H107.902V56.9135Z" fill="white"/>
<path d="M102.381 61.7301H101.231V62.8769H102.381V61.7301Z" fill="white"/>
<path d="M103.761 61.7301H102.611V62.8769H103.761V61.7301Z" fill="white"/>
<path d="M105.141 61.7301H103.991V62.8769H105.141V61.7301Z" fill="white"/>
<path d="M106.521 61.7301H105.371V62.8769H106.521V61.7301Z" fill="white"/>
<path d="M107.902 61.7301H106.752V62.8769H107.902V61.7301Z" fill="white"/>
<path d="M68.1648 20.9949L64.534 21.5362L57.0411 22.6521L40.5339 25.112L40.4752 25.1201L35.0698 60.6143L35.0479 60.7553L96.5778 33.9632L96.7411 33.8921L68.1648 20.9949ZM93.0332 32.3909L91.1379 33.1065L88.3432 31.7521L90.2236 31.1225L93.0332 32.3909ZM62.9733 22.4686L63.0354 22.4594L63.7255 22.8849L63.2551 22.9606L62.4178 23.0948L61.7772 22.6532L62.7594 22.5042L62.9733 22.4686ZM62.3856 23.2622L62.994 23.6819L63.3011 23.8941L62.994 23.9549L62.764 24.0008L62.1556 24.1212L61.2746 23.4411L62.3166 23.2737L62.3856 23.2622ZM63.3448 23.1074L63.9371 23.0111L64.8675 23.5845L63.5161 23.8528L63.2183 23.6475L62.6099 23.2278L63.3448 23.1074ZM65.975 22.6831L67.1527 22.4938L68.0302 22.9526L66.7651 23.2037L66.2936 22.9354L65.875 22.6968L65.975 22.6831ZM67.0883 23.5718L67.63 23.8803L67.5058 23.9056L66.1406 24.1762L65.293 23.6567L66.7352 23.3712L67.0883 23.5718ZM63.1907 24.9262L64.4339 24.6785L64.6179 24.807L64.6605 24.8356L64.9261 25.0191L63.661 25.2909L63.3057 25.0111L63.2792 24.9893L63.1907 24.9262ZM64.6501 24.6361L66.1096 24.346L66.4546 24.557L66.519 24.596L66.6179 24.6567L65.1458 24.9744L64.902 24.8058L64.8583 24.7749L64.6501 24.6361ZM59.9704 33.4311L57.109 34.1834L56.2798 32.7212L58.9836 32.0687L59.9704 33.4311ZM58.8893 31.9276L56.1981 32.579L55.508 31.3599L57.9968 30.7728L58.0497 30.7601L58.7088 31.6776V31.6856L58.8893 31.9276ZM67.576 26.8437L67.8405 27.0272L67.1849 27.1683L66.4109 27.3334L66.3281 27.3518L66.1176 27.1889L65.8738 26.9997L64.8387 26.1969L66.1901 25.8896L67.1585 26.5582L67.576 26.8437ZM62.8192 26.6602L62.9963 26.6201L64.6455 26.2451L65.6714 27.0376L65.9152 27.2268L66.1337 27.3954L64.1924 27.814L63.9175 27.5846L63.7312 27.4286L62.9261 26.7543L62.8192 26.6602ZM66.2959 27.5215L66.4742 27.6591L66.5363 27.7073L67.4172 28.3874L65.4276 28.8576L64.3407 27.9401L66.2959 27.5215ZM63.9957 27.8564L63.3666 27.9917H63.3551L60.0578 28.7027L59.9209 28.7326L58.9112 27.5456L60.021 27.2933L62.6156 26.7038L63.9957 27.8564ZM60.0624 28.8656L63.2321 28.1775L63.5046 28.119L64.1475 27.9802L65.239 28.8977L64.5098 29.0697L64.2418 29.1328L60.9273 29.9149L60.0624 28.8988L60.036 28.8679L60.0624 28.8656ZM61.8267 31.2177L60.136 31.626L59.0549 31.8875L58.2142 30.7212L60.0992 30.2762L60.8698 30.095L61.8267 31.2177ZM60.1395 31.7911L61.9417 31.3565L63.025 32.6306L60.182 33.3783L60.1337 33.391L59.1538 32.0297L60.1395 31.7911ZM61.0434 30.0571L64.3787 29.2704L64.6467 29.2073L65.3885 29.0319L66.6168 30.064L66.082 30.1936L65.0469 30.4425L61.9946 31.181L61.0434 30.0571ZM65.5828 28.986L67.5783 28.5158L67.998 28.8404L68.8744 29.5181L67.998 29.7303L66.81 30.017L65.5828 28.986ZM67.998 28.642L67.7761 28.4699L67.998 28.4172L69.3781 28.0926L70.779 29.0594L69.0745 29.4711L67.998 28.642ZM67.998 28.2543L67.6151 28.3449L66.6605 27.6075L66.4937 27.4814L66.917 27.3896L67.9934 27.1603H68.013L69.1953 27.9768L67.998 28.2543ZM64.6823 26.0754L63.8278 25.4171L65.1067 25.143L66.0153 25.7703L64.6823 26.0754ZM64.4822 26.1212L62.9951 26.4596L62.7651 26.5112L62.6662 26.5341L61.8474 25.846L62.7674 25.6487L62.9974 25.5994L63.6323 25.463L64.4822 26.1212ZM62.4718 26.58L60.0118 27.1373L58.7904 27.4149L58.1303 26.6408L59.9842 26.2428L61.6426 25.8861L62.4718 26.58ZM58.6213 27.455L57.2228 27.7727L56.2499 27.994L55.661 27.1763L57.1906 26.8483L57.9577 26.6786L58.6213 27.455ZM57.2286 27.9344L58.7364 27.5903L59.7404 28.7727L57.2711 29.306L57.2021 29.3209L56.3453 28.1305L57.2286 27.9344ZM59.8554 28.9092L60.0647 29.1546L60.749 29.9574L60.0912 30.1191L58.1096 30.5778L57.3045 29.4562L59.8554 28.9092ZM62.1096 31.3118L64.9365 30.6237L66.1613 30.3266L66.764 30.181L67.9923 31.2131L68.0843 31.29L67.9923 31.3141L63.1895 32.5756L62.1096 31.3118ZM67.9934 31.0113L66.9584 30.1397L67.9934 29.8897L69.0285 29.6386L70.3902 30.6925L68.2729 31.2498L67.9934 31.0113ZM69.2275 29.5904L70.9457 29.1752L72.381 30.1661L70.5835 30.6386L69.2275 29.5904ZM71.1527 29.1259L73.1263 28.6488L74.6352 29.5732L72.5823 30.1191L71.1527 29.1259ZM70.9779 29.0044L69.5794 28.0387L71.4196 27.6041L72.9331 28.5319L70.9779 29.0044ZM69.4012 27.9172L68.2235 27.1041L69.9866 26.7245L71.2321 27.4814L69.4012 27.9172ZM68.0452 26.9814L67.9911 26.9435L66.3994 25.8449L67.9704 25.487L67.9911 25.4997L69.791 26.6041L68.0452 26.9814ZM66.2223 25.7199L65.3172 25.0948L66.8123 24.7737L67.7795 25.3666L66.2223 25.7199ZM63.0756 25.0318L63.4586 25.3265L62.9871 25.4274L62.7571 25.4767L61.6852 25.7061L61.2136 25.3104L61.7887 25.1958L62.0003 25.1545H62.0095L62.7513 25.0065L62.9813 24.9618L63.0434 25.0111L63.0756 25.0318ZM59.9704 25.5593L61.0181 25.3506L61.4931 25.7497L59.9842 26.0742L58.0152 26.5043L57.6162 26.0352L59.9704 25.5593ZM57.8416 26.5341L57.1803 26.6763L55.5552 27.0204L55.186 26.5066L57.1607 26.1132L57.4402 26.0582L57.8416 26.5341ZM55.3861 27.0616L53.316 27.5055L52.9974 26.9458L55.0124 26.5444L55.3861 27.0616ZM55.4873 27.2015L56.0773 28.0215L53.8922 28.5181L53.3999 27.65L55.4873 27.2015ZM56.1774 28.1603L57.0331 29.3484L54.6547 29.8622L53.9738 28.6615L56.1774 28.1603ZM57.1343 29.4895L57.2849 29.6947L57.9416 30.6122L57.8807 30.626L55.4183 31.2074L54.7363 30.0044L57.1343 29.4895ZM56.0325 32.6088L53.0848 33.3302L52.5454 32.0584L55.3401 31.3989L56.0325 32.6088ZM56.113 32.7522L56.9445 34.2167L53.814 35.0504L53.1481 33.4793L56.113 32.7522ZM57.025 34.3577L58.0152 36.1055L54.6685 37.0551L53.8749 35.1949L57.025 34.3577ZM57.1837 34.3164L60.059 33.5595L61.2355 35.1915L58.1728 36.0608L57.1837 34.3164ZM60.228 33.5137L63.1343 32.7568L64.4316 34.2809L61.3942 35.1422L60.228 33.5137ZM63.308 32.7109L67.9969 31.4769L68.2373 31.4138L69.8232 32.7568L64.5995 34.2385L63.308 32.7109ZM68.4213 31.3611L70.5512 30.8072L72.1959 32.0778L70.0107 32.6983L68.4213 31.3611ZM70.7422 30.751L72.5524 30.275L74.2936 31.4781L72.3833 32.0194L70.7422 30.751ZM72.7537 30.2338L74.8238 29.6902L76.664 30.8175L74.4938 31.4333L72.7537 30.2338ZM75.0366 29.6317L76.8882 29.1454L78.7732 30.2177L76.8722 30.7567L75.0366 29.6317ZM74.8503 29.517L73.3471 28.5995L75.1516 28.1591L76.6893 29.0342L74.8503 29.517ZM73.1573 28.478L71.645 27.5513L73.3701 27.1442L74.9515 28.0433L73.1573 28.478ZM71.4541 27.4332L70.2131 26.6786L71.9015 26.3139L73.1665 27.033L71.4541 27.4332ZM70.0211 26.5547L68.197 25.4366L69.7462 25.0845L71.7013 26.1946L70.0211 26.5547ZM68.0038 25.3173H67.9969L67.0366 24.729L67.9934 24.5237L68.5478 24.409L69.5403 24.9744L68.0038 25.3173ZM67.9969 24.3597L67.4816 24.4744H67.4701L66.841 24.6143L66.7686 24.5696L66.7019 24.5283L66.3396 24.3058L67.6668 24.042L67.8405 24.0076L68.3408 24.2921L67.9969 24.3597ZM65.9152 24.2232L64.473 24.51L63.699 23.9744L65.0676 23.7037L65.9152 24.2232ZM64.2568 24.5524L63.0296 24.7967L62.994 24.7691L62.764 24.5914L62.32 24.2473L62.764 24.159L62.994 24.1132L63.4816 24.0168L64.2568 24.5524ZM62.7617 24.7921L62.8215 24.8379L62.7617 24.8494L61.0618 25.1877L60.3971 24.6292L62.1107 24.2852L62.7617 24.7921ZM60.864 25.2267L59.944 25.4114L57.5092 25.8953L57.1469 25.4698L56.9963 25.3024L57.132 25.276L59.3171 24.8425L60.1993 24.6671L60.864 25.2267ZM57.1481 25.7244L57.324 25.9309L57.1573 25.9641L55.0871 26.377L54.6501 25.7692L56.8226 25.3391L57.1481 25.7244ZM54.9146 26.4125L52.9192 26.8093L52.565 26.1855L54.4776 25.8059L54.9146 26.4125ZM52.7547 26.8426L50.5235 27.2864L50.2521 26.6442L52.3993 26.2199L52.7547 26.8426ZM52.8375 26.9871L53.1561 27.549L50.8456 28.0456L50.5868 27.4344L52.8375 26.9871ZM53.2378 27.6935L53.7323 28.564L51.2999 29.1167L50.9088 28.1936L53.2378 27.6935ZM53.8128 28.7073L54.4925 29.9058L51.8726 30.4711L51.362 29.2647L53.8128 28.7073ZM54.5742 30.0503L55.255 31.2544L52.4799 31.9093L51.9324 30.6179L54.5742 30.0503ZM52.9295 33.368L49.9646 34.0848L49.5851 32.7568L52.389 32.095L52.9295 33.368ZM52.9916 33.516L53.6587 35.0894L50.4844 35.9243L50.0049 34.2373L52.9916 33.516ZM53.7208 35.2362L54.5109 37.0986L51.0928 38.0677L50.5281 36.0757L53.7208 35.2362ZM54.573 37.2454L55.4931 39.4244L51.8048 40.5552L51.1423 38.2237L54.573 37.2454ZM54.7271 37.2019L58.0923 36.2466L59.2504 38.2868L55.6507 39.3808L54.7271 37.2019ZM58.2453 36.203L61.3275 35.3279L62.7007 37.2363L59.4023 38.2397L58.2453 36.203ZM61.4897 35.2855L64.5409 34.4208L66.0693 36.2156L62.8606 37.1915L61.4897 35.2855ZM64.7099 34.3681L69.967 32.8772L71.8462 34.4552L66.2384 36.1628L64.7099 34.3681ZM70.151 32.8244L72.3477 32.2017L74.3028 33.7098L72.0314 34.3979L70.151 32.8244ZM72.5363 32.1478L74.4616 31.6099L76.5317 33.0389L74.4869 33.6605L72.5363 32.1478ZM74.6582 31.5469L76.8434 30.9276L79.0286 32.2705L76.7192 32.9724L74.6582 31.5469ZM77.0493 30.8679L78.9607 30.3266L81.2149 31.6099L79.2379 32.2109L77.0493 30.8679ZM79.1769 30.267L80.9665 29.759L83.2862 30.9792L81.4254 31.5457L79.1769 30.267ZM78.9849 30.1523L77.1068 29.0869L78.8319 28.6339L80.7675 29.6512L78.9849 30.1523ZM76.9067 28.9722L75.3747 28.1018L77.0493 27.697L78.6191 28.5227L76.9067 28.9722ZM75.1746 27.9871L73.5932 27.088L75.1804 26.7141L76.8376 27.5857L75.1746 27.9871ZM73.392 26.9733L72.1338 26.2577L73.6795 25.9251L74.9676 26.6018L73.392 26.9733ZM71.9314 26.1442L69.9762 25.0329L71.3747 24.7141L73.4633 25.8127L71.9314 26.1442ZM69.7726 24.9171L68.7836 24.354L70.1372 24.0627L71.1608 24.6017L69.7726 24.9171ZM68.5765 24.237L68.0808 23.9549L69.423 23.6877L69.9187 23.948L68.5765 24.237ZM67.8715 23.8356L66.9756 23.3253L68.2534 23.073L69.201 23.5707L67.8715 23.8356ZM66.5259 23.253L65.0952 23.5374L64.1751 22.9732L65.6231 22.7438L66.5259 23.253ZM61.9451 24.1625L60.2418 24.4996L59.3493 23.7508L61.0561 23.4755L61.9451 24.1625ZM60.044 24.5398L59.1722 24.7129L57.1274 25.1178L56.8801 25.1671L56.1164 24.2703L57.0917 24.1132L58.3028 23.9182L59.1423 23.7829L60.044 24.5398ZM56.7018 25.2015L54.5466 25.6293L53.8335 24.6395L55.9347 24.2955L56.7018 25.2015ZM54.3752 25.6602L52.4822 26.0352L51.8669 24.9584L53.6575 24.6694L54.3752 25.6602ZM52.3177 26.0685L50.1889 26.4905L49.684 25.3024L51.6989 24.9779L52.3177 26.0685ZM50.029 26.5272L47.9347 26.9424L47.5667 25.6465L49.5218 25.3311L50.029 26.5272ZM50.0923 26.6752L50.3648 27.3174L48.1659 27.7543L47.9784 27.0949L50.0923 26.6752ZM50.4281 27.4665L50.688 28.08L48.3982 28.572L48.2096 27.908L50.4281 27.4665ZM50.7513 28.228L51.1423 29.1523L48.7191 29.7028L48.4407 28.7245L50.7513 28.228ZM51.2056 29.3002L51.7162 30.5055L49.1066 31.0675L48.7616 29.8553L51.2056 29.3002ZM51.7806 30.6535L52.3292 31.9471L49.5437 32.6042L49.1515 31.22L51.7806 30.6535ZM49.8082 34.1215L46.5603 34.9059L46.3809 33.5114L49.4298 32.7923L49.8082 34.1215ZM49.8507 34.274L50.3303 35.9679L46.8157 36.8853L46.5856 35.0619L49.8507 34.274ZM50.374 36.1158L50.941 38.1113L47.1124 39.1973L46.8364 37.0459L50.374 36.1158ZM50.9836 38.2638L51.6472 40.5988L47.4574 41.8717L47.1331 39.3556L50.9836 38.2638ZM51.6897 40.7501L52.4948 43.5805L47.8772 45.1264L47.4781 42.03L51.6897 40.7501ZM51.8416 40.7043L55.5598 39.5735L56.6673 42.1848L52.642 43.53L51.8416 40.7043ZM55.7151 39.523L59.3321 38.4232L60.6984 40.8316L56.8203 42.1298L55.7151 39.523ZM59.4874 38.3762L62.8042 37.3681L64.4052 39.5918L60.8502 40.7845L59.4874 38.3762ZM62.9606 37.3234L66.1809 36.344L67.9405 38.4083L64.5558 39.5414L62.9606 37.3234ZM66.3488 36.2913L71.9923 34.571L74.1016 36.3429L68.105 38.3498L66.3488 36.2913ZM72.1729 34.5206L74.4535 33.8325L76.6237 35.5091L74.2787 36.2936L72.1729 34.5206ZM74.6387 33.7706L76.6973 33.1455L78.9745 34.7178L76.8031 35.4438L74.6387 33.7706ZM76.8905 33.0825L79.2149 32.376L81.5921 33.8428L79.1585 34.6571L76.8905 33.0825ZM79.4207 32.3152L81.407 31.7109L83.8313 33.0871L81.7957 33.7694L79.4207 32.3152ZM81.6163 31.6478L83.4863 31.0744L85.9579 32.3737L84.0338 33.0182L81.6163 31.6478ZM83.7014 31.0136L85.4012 30.4964L87.9314 31.72L86.1706 32.3084L83.7014 31.0136ZM83.5024 30.9081L81.1884 29.6913L82.7986 29.2326L85.1931 30.392L83.5024 30.9081ZM80.9826 29.5904L79.0527 28.5754L80.5892 28.1695L82.5812 29.1339L80.9826 29.5904ZM78.8457 28.4665L77.2827 27.6442L78.7617 27.2864L80.3719 28.0651L78.8457 28.4665ZM77.07 27.533L75.415 26.6625L76.7951 26.3357L78.5329 27.1775L77.07 27.533ZM75.2022 26.5502L73.921 25.8758L75.2563 25.588L76.5743 26.2267L75.2022 26.5502ZM73.7071 25.7611L71.6139 24.6602L72.7939 24.393L75.0297 25.4756L73.7071 25.7611ZM71.3989 24.5478L70.3799 24.0111L71.507 23.7691L72.5662 24.2817L71.3989 24.5478ZM70.1614 23.8964L69.6714 23.6384L70.7813 23.4182L71.2758 23.6567L70.1614 23.8964ZM69.4483 23.5214L68.5018 23.0237L69.5369 22.8172L70.5409 23.3035L69.4483 23.5214ZM68.2787 22.9067L67.4138 22.448L68.4489 22.2817L69.3103 22.6991L68.2787 22.9067ZM67.1803 22.3333L66.4443 21.9468L67.4264 21.7966L68.197 22.1704L67.1803 22.3333ZM66.9204 22.3757L65.8048 22.55L65.653 22.5741L64.9411 22.1704L65.2677 22.1211L66.1774 21.9823L66.9204 22.3757ZM65.4069 22.62L63.9716 22.8493L63.2815 22.4262L64.6858 22.206L65.4069 22.62ZM62.1981 23.1361L61.1032 23.3127L60.5052 22.8539L61.5529 22.6945L62.1981 23.1361ZM60.8905 23.3425L59.1952 23.6154L58.6202 23.1326L60.289 22.878L60.8905 23.3425ZM58.9882 23.6487L58.159 23.7829L57.0917 23.9549L56.0026 24.1304L55.5506 23.5994L57.071 23.37L57.615 23.2863L58.412 23.1659L58.9882 23.6487ZM55.814 24.1556L53.7289 24.4996L53.3275 23.9423L55.3608 23.6326L55.814 24.1556ZM53.554 24.5191L51.7829 24.8047L51.4505 24.2187L53.1515 23.9595L53.554 24.5191ZM51.6161 24.8311L49.6196 25.1579L49.3585 24.5409L51.2815 24.2485L51.6161 24.8311ZM49.4597 25.1751L47.523 25.487L47.3401 24.8437L49.1975 24.5616L49.4597 25.1751ZM47.3654 25.5203L45.3941 25.838L45.3056 25.1579L47.1814 24.8723L47.3654 25.5203ZM47.4091 25.674L47.7771 26.9722L45.592 27.4045L45.4137 25.9905L47.4091 25.674ZM47.8208 27.1247L48.0083 27.7853L45.7081 28.244L45.6196 27.5628L47.8208 27.1247ZM48.0508 27.9378L48.2395 28.6041L45.8151 29.1248L45.7219 28.4L48.0508 27.9378ZM48.2809 28.7566L48.5592 29.7372L45.968 30.3266L45.8335 29.2819L48.2809 28.7566ZM48.6029 29.8897L48.9479 31.1008L46.1463 31.7051L45.9887 30.4838L48.6029 29.8897ZM48.9893 31.2533L49.3896 32.6421L46.3625 33.3554L46.1716 31.8645L48.9893 31.2533ZM46.4016 34.9438L42.918 35.7855L42.9433 34.321L46.2222 33.5481L46.4016 34.9438ZM46.4223 35.102L46.6523 36.9289L42.8835 37.9175L42.918 35.9449L46.4223 35.102ZM46.6776 37.0872L46.9548 39.2409L42.834 40.4095L42.8754 38.0861L46.6776 37.0872ZM46.9744 39.3992L47.2987 41.9222L42.7834 43.2984L42.8317 40.5816L46.9744 39.3992ZM47.3194 42.0782L47.7173 45.1746L42.719 46.8501L42.78 43.4578L47.3194 42.0782ZM47.738 45.3374L48.2487 49.302L42.6385 51.4213L42.7167 47.0175L47.738 45.3374ZM47.8921 45.2858L52.5328 43.733L53.546 47.3019L48.4016 49.2447L47.8921 45.2858ZM52.6834 43.6803L56.7248 42.3282L58.105 45.5783L53.6967 47.2435L52.6834 43.6803ZM56.8801 42.2754L60.7755 40.9761L62.4557 43.9383L58.2545 45.5244L56.8801 42.2754ZM60.9296 40.9199L64.4949 39.726L66.4397 42.4279L62.6076 43.881L60.9296 40.9199ZM64.657 39.6733L68.0544 38.5368L70.1694 41.0208L66.5972 42.3695L64.657 39.6733ZM68.2223 38.4817L74.2511 36.4644L76.7284 38.5459L70.3327 40.9612L68.2223 38.4817ZM74.4271 36.406L76.7744 35.6238L79.3046 37.5734L76.8894 38.484L74.4271 36.406ZM76.9573 35.5585L79.1424 34.8279L81.7692 36.6411L79.4806 37.5058L76.9573 35.5585ZM79.3287 34.7649L81.775 33.946L84.4927 35.6124L81.9475 36.5734L79.3287 34.7649ZM81.974 33.8807L84.0188 33.1926L86.7618 34.7522L84.6824 35.5378L81.974 33.8807ZM84.2201 33.1283L86.1545 32.4815L88.9251 33.9391L86.9538 34.6834L84.2201 33.1283ZM86.357 32.4127L88.1281 31.821L90.9343 33.1799L89.1183 33.868L86.357 32.4127ZM90.0119 31.0239L88.1396 31.6501L85.6174 30.4344L87.4576 29.8759L90.0119 31.0239ZM87.2414 29.775L85.4127 30.3301L83.024 29.1729L84.7951 28.6706L87.2414 29.775ZM84.5709 28.572L82.8101 29.072L80.8239 28.1098L82.549 27.6511L84.5709 28.572ZM82.3144 27.5536L80.6053 28.0032L79.0044 27.2279L80.6893 26.8208L82.3144 27.5536ZM80.4547 26.7141L78.7801 27.119L77.0435 26.2784L78.6479 25.8999L80.4547 26.7141ZM78.411 25.7967L76.8181 26.1717L75.507 25.5318L77.0838 25.1877L78.411 25.7967ZM76.8411 25.088L75.277 25.4171L73.0366 24.3322L74.4616 24.0122L76.8411 25.088ZM74.2315 23.9044L72.8146 24.2255L71.76 23.7152L73.0423 23.44L73.0251 23.3597L74.2315 23.9044ZM72.9078 23.3069L71.5277 23.6028L71.04 23.3666L72.22 23.1315L72.1901 22.9824L72.9078 23.3069ZM72.1809 22.9789L70.8008 23.2519L69.7968 22.7656L71.1263 22.503L72.1809 22.9789ZM70.8779 22.3906L69.5645 22.6521L68.7111 22.2415L70.059 22.0248L70.8779 22.3906ZM69.8048 21.9067L68.4707 22.1211L67.6979 21.7473L69.0101 21.5477L69.8048 21.9067ZM68.1475 21.1589L68.7513 21.4307L67.446 21.6326L66.871 21.3527L68.1475 21.1589ZM66.5972 21.3883L67.1723 21.6693L66.205 21.8161L65.6565 21.5282L66.5972 21.3883ZM64.7076 21.6693L65.3977 21.5672L65.9474 21.8562L65.1044 21.9846L64.7249 22.0431L64.2027 21.745L64.7076 21.6693ZM63.9474 21.7839L64.4707 22.0821L63.0745 22.2943L62.5754 21.9892L63.9474 21.7839ZM62.3373 22.0248L62.8376 22.3321L61.5989 22.5202L61.1389 22.2037L62.3373 22.0248ZM60.9112 22.2381L61.3712 22.5546L60.3361 22.7117L59.914 22.386L60.9112 22.2381ZM59.699 22.4181L60.1222 22.745L58.4649 22.9973L58.0532 22.6647L59.699 22.4181ZM57.0538 22.8127L57.094 22.8069L57.8531 22.6922L58.2522 23.0283L57.4678 23.1429L57.0676 23.2037L55.4333 23.4526L55.1274 23.0936L57.0538 22.8127ZM54.9342 23.1234L55.2412 23.4824L53.224 23.7897L52.9548 23.4216L54.9342 23.1234ZM52.78 23.4445L53.048 23.8161L51.3666 24.0719L51.148 23.6877L52.78 23.4445ZM50.9801 23.7118L51.1987 24.0971L49.2952 24.3872L49.1262 23.9881L50.9801 23.7118ZM48.964 24.0122L49.1342 24.4113L47.2941 24.6912L47.1791 24.2783L48.964 24.0122ZM47.0204 24.3024L47.1354 24.7152L45.2837 24.9974L45.2285 24.5684L47.0204 24.3024ZM43.1101 24.8838L45.0652 24.5925L45.1204 25.0214L43.0986 25.3288L43.1101 24.8838ZM43.0997 25.4893L45.1492 25.1877L45.2366 25.8701L43.0917 26.2141L43.0997 25.4893ZM43.0836 26.3667L45.2527 26.0169L45.4344 27.4321L43.0641 27.908L43.0836 26.3667ZM43.0641 28.0697L45.4597 27.5961L45.5471 28.2773L43.0457 28.775L43.0641 28.0697ZM43.0491 28.9333L45.5736 28.4321L45.6667 29.158L43.0341 29.7234L43.0491 28.9333ZM43.0319 29.8863L45.6874 29.3129L45.822 30.3588L43.0123 30.9975L43.0319 29.8863ZM43.0088 31.1627L45.8415 30.5193L45.9991 31.7384L42.987 32.3875L43.0088 31.1627ZM46.0186 31.8955L46.2107 33.3864L42.9559 34.1547L42.9847 32.5492L46.0186 31.8955ZM40.6236 25.26L42.9617 24.9159L42.9536 25.3609L40.5534 25.7267L40.6236 25.26ZM40.5292 25.8861L42.9444 25.5169L42.9318 26.2348L40.4085 26.6419L40.5292 25.8861ZM40.3889 26.8036L42.9352 26.393L42.9019 27.9401L40.1267 28.4906L40.3889 26.8036ZM40.1072 28.6534L42.9042 28.0984L42.8927 28.8014L39.9968 29.3748L40.1072 28.6534ZM39.9657 29.5457L42.8835 28.9654L42.8697 29.7578L39.8346 30.4092L39.9657 29.5457ZM39.8093 30.5778L42.8662 29.9218L42.8467 31.0377L39.6264 31.7694L39.8093 30.5778ZM39.6023 31.9368L42.8444 31.2005L42.8225 32.423L39.416 33.1582L39.6023 31.9368ZM39.3907 33.3302L42.8191 32.5905L42.7903 34.2018L39.1261 35.0653L39.3907 33.3302ZM39.1008 35.2339L42.788 34.3623L42.7616 35.828L38.8674 36.7707L39.1008 35.2339ZM38.8409 36.9404L42.7593 35.9943L42.719 37.9634L38.512 39.07L38.8409 36.9404ZM38.4959 39.2466L42.7259 38.1342L42.6845 40.46L38.1141 41.757L38.4959 39.2466ZM38.0876 41.9279L42.6822 40.6251L42.6339 43.3465L37.6402 44.8638L38.0876 41.9279ZM37.6092 45.0278L42.6247 43.5037L42.5649 46.8994L37.0445 48.7469L37.6092 45.0278ZM42.374 57.394L35.2515 60.4904L36.2394 54.0017L42.4764 51.6461L42.374 57.394ZM36.2659 53.8285L37.0157 48.927L42.5615 47.0714L42.489 51.4821L36.2659 53.8285ZM42.5339 57.324L42.6362 51.5899L48.2717 49.4626L48.9295 54.5464L42.5339 57.324ZM49.0756 54.4765L48.4235 49.4064L53.5908 47.4568L54.8674 51.9558L49.0756 54.4765ZM55.0147 51.8892L53.7392 47.3983L58.1659 45.7274L59.8795 49.7711L55.0147 51.8892ZM60.0256 49.7103L58.3143 45.6735L62.5328 44.0794L64.603 47.7194L60.0256 49.7103ZM64.741 47.6552L62.68 44.0232L66.5328 42.5679L68.8928 45.8478L64.741 47.6552ZM69.0412 45.7824L66.6927 42.5048L70.2787 41.1515L72.8192 44.1333L69.0412 45.7824ZM72.9664 44.0725L70.4362 41.0907L76.8629 38.6641L79.7715 41.1079L72.9664 44.0725ZM79.9291 41.0403L77.0309 38.6056L79.4461 37.6881L82.3972 39.968L79.9291 41.0403ZM82.5593 39.8935L79.6197 37.6216L81.9199 36.7535L84.9561 38.8498L82.5593 39.8935ZM85.1264 38.7753L82.1005 36.6846L84.6583 35.719L87.7635 37.6262L85.1264 38.7753ZM87.9441 37.5482L84.8388 35.6491L86.9274 34.86L90.0418 36.6319L87.9441 37.5482ZM90.2293 36.5528L87.1241 34.7878L89.1034 34.0401L92.227 35.6823L90.2293 36.5528ZM92.4145 35.602L89.3023 33.9655L91.1264 33.2774L94.2638 34.797L92.4145 35.602ZM94.4559 34.7132L91.3311 33.1994L93.2345 32.4804L96.3524 33.8875L94.4559 34.7132Z" fill="#EDEDF4"/>
<path d="M67.9934 24.2955V31.665L60.0934 33.4437L57.2906 29.8862L57.0434 22.769L57.0365 22.5179L64.1705 21.2472L67.9934 24.2955Z" fill="#EDEDF4"/>
<path opacity="0.1" d="M67.9934 24.3471V31.665L60.1774 33.4253L60.0934 33.4437L57.2906 29.8862L57.0434 22.769L59.9658 25.4389L67.9934 24.3471Z" fill="black"/>
<path opacity="0.1" d="M67.9935 24.37V31.6649L60.1774 33.4253L59.9658 25.4388L67.8658 24.4227L67.9935 24.37Z" fill="black"/>
<path d="M63.653 23.6452L63.2642 22.972L62.8755 22.3L62.4856 22.972L62.0969 23.6452H62.7605V26.752H62.9905V23.6452H63.653Z" fill="#BE6F72"/>
<path d="M66.0244 30.0938L65.6357 29.4207L65.3666 29.8863L63.3562 27.9871L63.1986 28.1534L65.2481 30.0904L65.2458 30.0938L64.8571 30.7659H65.6357H66.4132L66.0244 30.0938Z" fill="#BE6F72"/>
<path d="M66.9491 26.4836L66.2177 26.2164L66.3396 26.9171L63.7174 27.3839L63.7576 27.6098L66.3787 27.1431L66.4845 27.7463L67.0814 27.2486L67.6794 26.7508L66.9491 26.4836Z" fill="#BE6F72"/>
<path d="M21.4046 32.6581C20.0631 31.9277 19.5701 30.2525 20.3034 28.9164C21.0368 27.5804 22.7188 27.0893 24.0603 27.8197C25.4018 28.5501 25.8948 30.2253 25.1615 31.5614C24.4281 32.8974 22.7461 33.3885 21.4046 32.6581Z" fill="#FFB8B8"/>
<path d="M18.3925 29.2547C17.04 29.2547 15.9435 28.1626 15.9435 26.8156C15.9435 25.4685 17.04 24.3765 18.3925 24.3765C19.7451 24.3765 20.8415 25.4685 20.8415 26.8156C20.8415 28.1626 19.7451 29.2547 18.3925 29.2547Z" fill="#2F2E41"/>
<path d="M16.2801 28.8353C16.5971 29.0635 16.9644 29.2127 17.3511 29.2706C17.7379 29.3284 18.1329 29.2932 18.5032 29.1678C18.8735 29.0424 19.2082 28.8305 19.4795 28.5498C19.7507 28.2692 19.9504 27.9279 20.0621 27.5546C20.0198 27.8891 19.9084 28.2113 19.7348 28.5008C19.5612 28.7903 19.3293 29.0408 19.0536 29.2365C18.7779 29.4322 18.4645 29.5689 18.1331 29.6379C17.8017 29.7069 17.4595 29.7066 17.1282 29.6373C16.7969 29.5679 16.4836 29.4309 16.2081 29.2348C15.9327 29.0388 15.701 28.788 15.5278 28.4983C15.3546 28.2086 15.2435 27.8863 15.2017 27.5517C15.1598 27.2171 15.1881 26.8775 15.2847 26.5543C15.2298 26.9885 15.2933 27.4294 15.4685 27.8307C15.6436 28.2321 15.924 28.5791 16.2801 28.8353Z" fill="#2F2E41"/>
<path d="M25.9449 28.838C25.5174 28.0757 25.3538 27.7573 24.8025 27.2937C24.315 26.8838 23.7154 26.7634 23.2318 27.1518C22.6597 26.9056 22.023 26.8498 21.4165 26.9926C20.81 27.1355 20.2659 27.4694 19.8651 27.9447C19.4643 28.42 19.2281 29.0115 19.1916 29.6311C19.1552 30.2508 19.3204 30.8656 19.6627 31.3843C20.0051 31.903 20.5063 32.2979 21.0919 32.5103C21.6775 32.7227 22.3164 32.7413 22.9134 32.5634C23.5105 32.3854 24.034 32.0204 24.4062 31.5225C24.7784 31.0246 24.9794 30.4204 24.9794 29.7996C24.9789 29.6906 24.9723 29.5817 24.9596 29.4735C25.38 29.4147 25.5245 28.8968 25.9449 28.838Z" fill="#2F2E41"/>
<path d="M29.4364 67.8751L30.7025 67.5088L29.8866 62.4705L28.0178 63.0111L29.4364 67.8751Z" fill="#FFB8B8"/>
<path d="M31.6871 66.8333L29.06 67.5933L29.5066 69.1246L33.486 67.9734L33.4322 67.7889C33.3806 67.612 33.2945 67.447 33.1789 67.3033C33.0633 67.1595 32.9204 67.0399 32.7583 66.9511C32.5963 66.8624 32.4183 66.8063 32.2345 66.7861C32.0507 66.7659 31.8647 66.7819 31.6871 66.8333Z" fill="#2F2E41"/>
<path d="M16.3513 67.9053L17.6698 67.9052L18.2971 62.84L16.3511 62.8401L16.3513 67.9053Z" fill="#FFB8B8"/>
<path d="M18.8045 67.5299H16.0688V69.1245H20.2126V68.9324C20.2126 68.7482 20.1762 68.5658 20.1055 68.3957C20.0347 68.2255 19.931 68.0709 19.8002 67.9407C19.6694 67.8104 19.5142 67.7071 19.3434 67.6367C19.1725 67.5662 18.9894 67.5299 18.8045 67.5299Z" fill="#2F2E41"/>
<path d="M19.4537 50.2733C19.5543 50.1518 19.6269 50.0098 19.6664 49.8573C19.706 49.7049 19.7115 49.5456 19.6825 49.3908C19.6536 49.236 19.591 49.0894 19.499 48.9613C19.407 48.8333 19.2879 48.7268 19.1502 48.6495L19.8348 44.8831L17.9984 45.6648L17.6298 49.1216C17.5148 49.3607 17.4918 49.6335 17.5652 49.8883C17.6386 50.1432 17.8033 50.3623 18.0282 50.5043C18.253 50.6462 18.5223 50.7011 18.785 50.6585C19.0477 50.6159 19.2856 50.4789 19.4537 50.2732V50.2733Z" fill="#FFB8B8"/>
<path d="M18.4691 41.2554L20.6236 34.741C20.6686 34.6663 21.2048 33.8257 22.3727 34.1833C22.5016 34.2194 22.6216 34.2815 22.7254 34.3658C22.8292 34.4501 22.9144 34.5547 22.9759 34.6732C23.3177 35.3259 22.9989 36.3342 22.9975 36.3395L20.3449 42.2597L20.3421 42.2658L19.5048 48.3456L17.6967 47.98L18.4691 41.2554Z" fill="#BE6F72"/>
<path d="M32.7899 65.3548L29.5469 55.4509L25.7869 46.8912L25.841 42.7397L21.379 41.7034L20.8594 43.4433C17.8543 45.4181 18.8442 49.2171 18.9149 49.4717L14.3869 66.1146L19.3241 66.6609L22.6381 50.9032L25.6944 57.3061L27.8555 66.8838L32.7899 65.3548Z" fill="#2F2E41"/>
<path d="M26.1626 39.2546C27.0498 37.561 26.4084 36.9161 25.4385 35.9406C25.0421 35.5553 24.6701 35.1458 24.3248 34.7145C22.8116 32.777 21.0554 33.7285 21.0379 33.7384L21.028 33.7439L20.5941 34.3921C19.1642 35.8254 21.3326 39.7637 21.4972 40.057L21.3885 42.8731L25.9997 43.3105L26.1626 39.2546Z" fill="#BE6F72"/>
<path d="M24.4057 50.1267C24.4722 49.9838 24.5064 49.8282 24.5059 49.6707C24.5054 49.5132 24.4703 49.3578 24.403 49.2153C24.3357 49.0728 24.2378 48.9468 24.1163 48.8461C23.9948 48.7453 23.8525 48.6724 23.6996 48.6323L23.4052 44.8159L21.8271 46.0349L22.3487 49.4722C22.2981 49.7324 22.3452 50.0021 22.4809 50.2302C22.6167 50.4582 22.8317 50.6287 23.0853 50.7094C23.3388 50.7901 23.6133 50.7753 23.8567 50.6679C24.1 50.5605 24.2954 50.368 24.4057 50.1267Z" fill="#FFB8B8"/>
<path d="M24.0716 48.3374L23.3266 42.1581L24.3885 35.7637C24.391 35.7188 24.4437 34.6584 23.9206 34.0836C23.8228 33.975 23.7035 33.8877 23.5703 33.8269C23.4371 33.7662 23.2928 33.7334 23.1463 33.7306C21.8196 33.6727 21.5024 34.7736 21.4994 34.7846L21.0673 41.6541L22.0421 48.4498L24.0716 48.3374Z" fill="#BE6F72"/>
<path d="M40.9417 69.2117H4.90233C4.87724 69.2117 4.85318 69.2018 4.83544 69.1841C4.8177 69.1665 4.80774 69.1425 4.80774 69.1175C4.80774 69.0925 4.8177 69.0686 4.83544 69.0509C4.85318 69.0332 4.87724 69.0233 4.90233 69.0233H40.9417C40.9668 69.0233 40.9908 69.0332 41.0085 69.0509C41.0263 69.0686 41.0363 69.0925 41.0363 69.1175C41.0363 69.1425 41.0263 69.1665 41.0085 69.1841C40.9908 69.2018 40.9668 69.2117 40.9417 69.2117Z" fill="#CCCCCC"/>
</g>
<defs>
<clipPath id="clip0">
<rect width="125" height="74" fill="white"/>
</clipPath>
</defs>
</svg>
