<svg width="40" height="40" viewBox="0 0 40 40" fill="none" xmlns="http://www.w3.org/2000/svg">
<path fill-rule="evenodd" clip-rule="evenodd" d="M34.8732 0C32.056 0 5.12675 0 5.12675 0C2.30975 0 0 2.30983 0 5.12683V34.8731C0 37.6901 2.30975 40 5.12675 40H34.8732C37.6905 40 40 37.6901 40 34.8732V5.12683C40 2.30983 37.6905 0 34.8732 0ZM23.3331 12.5H30.8331V15H23.3331V12.5ZM14.9979 28.3333H6.6669V11.6667H14.9979C17.2913 11.6667 19.1592 13.5276 19.1592 15.8455C19.1592 17.3348 18.3554 18.6541 17.1732 19.3868C18.8043 19.9539 20.0114 21.5073 20.0114 23.3279C20.0113 26.0923 17.7402 28.3333 14.9979 28.3333ZM33.3334 22.5H24.1735C24.2907 24.3333 25.5205 25.8359 27.1051 25.8359C28.6649 25.8359 29.5409 24.8333 29.8481 23.3333H33.2294C32.6623 26.1667 30.8649 28.3436 27.1051 28.3436C23.3217 28.3436 20.8381 25.5548 20.8381 22.0797C20.8381 18.6275 23.3145 15.8404 27.0978 15.8404C30.8577 15.8404 33.3334 18.6276 33.3334 22.0791C33.3334 22.22 33.3334 22.3333 33.3334 22.5Z" fill="#1A1A1A"/>
</svg>
