<svg width="56" height="55" viewBox="0 0 56 55" fill="none" xmlns="http://www.w3.org/2000/svg">
<path fill-rule="evenodd" clip-rule="evenodd" d="M22.002 22.4978C22.002 21.1161 20.9614 20 19.6934 20H14.002V25H19.6935C20.9614 25 22.002 23.8811 22.002 22.4978Z" fill="#8F3F4E"/>
<path fill-rule="evenodd" clip-rule="evenodd" d="M19.6098 29H14.002V35H20.763C22.0111 35 23.002 33.447 23.002 32.1175C23.002 29.5663 20.8591 29 19.6098 29Z" fill="#8F3F4E"/>
<path fill-rule="evenodd" clip-rule="evenodd" d="M47.9527 0C44.079 0 7.05123 0 7.05123 0C3.17786 0 0.00195312 3.17602 0.00195312 7.0494V47.9505C0.00195312 51.8239 3.17786 55 7.05123 55H47.9526C51.8264 55 55.002 51.8239 55.002 47.9506V7.0494C55.002 3.17602 51.8264 0 47.9527 0ZM32.0853 17.1875H42.3978V20.625H32.0853V17.1875ZM20.6237 38.9583H9.16862V16.0417H20.6237C23.7772 16.0417 26.3456 18.6004 26.3456 21.7876C26.3456 23.8354 25.2403 25.6494 23.6148 26.6569C25.8576 27.4366 27.5173 29.5725 27.5173 32.0759C27.5172 35.8768 24.3945 38.9583 20.6237 38.9583ZM45.8353 30.9375H33.2404C33.4016 33.4583 35.0925 35.5244 37.2713 35.5244C39.4161 35.5244 40.6206 34.1458 41.043 32.0833H45.6923C44.9125 35.9792 42.4411 38.9724 37.2713 38.9724C32.0692 38.9724 28.6542 35.1378 28.6542 30.3595C28.6542 25.6128 32.0593 21.7806 37.2614 21.7806C42.4311 21.7806 45.8353 25.6129 45.8353 30.3587C45.8353 30.5525 45.8353 30.7083 45.8353 30.9375Z" fill="#8F3F4E"/>
<path fill-rule="evenodd" clip-rule="evenodd" d="M37.5177 26C35.6554 26 34.2439 27.1875 34.002 29H41.002C40.7009 27.1875 39.3493 26 37.5177 26Z" fill="#8F3F4E"/>
</svg>
