<svg width="28" height="22" viewBox="0 0 28 22" fill="none" xmlns="http://www.w3.org/2000/svg">
<path fill-rule="evenodd" clip-rule="evenodd" d="M14.3033 12.5183L25.5353 1.7596C25.462 1.74226 25.39 1.73427 25.3193 1.73427H3.26998C3.19798 1.73427 3.12732 1.74226 3.05398 1.7596L14.3033 12.5183ZM2.08199 2.76893C2.07265 2.8236 2.06732 2.8796 2.06732 2.9356V18.3823L10.2313 10.5623L2.08199 2.76893ZM26.5206 18.3836V2.9356C26.5206 2.8796 26.5153 2.8236 26.506 2.7676L18.3553 10.5743L26.5206 18.3836ZM2.82598 19.5956C2.97132 19.6609 3.11932 19.6956 3.26998 19.6956H25.3193C25.4687 19.6956 25.6166 19.6609 25.7633 19.5956L17.3433 11.5449L14.3033 14.4556L11.2433 11.5303L2.82598 19.5956ZM3.26998 21.0969C1.83399 21.0969 0.665985 19.9289 0.665985 18.4929V2.9356C0.665985 1.50093 1.83399 0.332932 3.26998 0.332932H25.3193C26.754 0.332932 27.922 1.50093 27.922 2.9356V18.4929C27.922 19.9289 26.754 21.0969 25.3193 21.0969H3.26998Z" fill="#8F3F4E"/>
</svg>
