<svg width="141" height="74" viewBox="0 0 141 74" fill="none" xmlns="http://www.w3.org/2000/svg">
<g clip-path="url(#clip0)">
<path d="M130.19 58.5168C130.033 58.8506 129.876 59.18 129.72 59.5049C129.476 60.0097 129.235 60.5046 128.998 60.9898C128.892 61.2048 128.787 61.4158 128.684 61.6267C127.519 63.9729 126.432 66.048 125.509 67.7546C124.671 69.3009 123.427 70.5965 121.906 71.5057C120.386 72.4148 118.646 72.9041 116.868 72.9223L96.3343 73.1426H96.1177L94.3574 73.1613L92.8517 73.1773L88.2344 73.2268H88.0475L85.6969 73.2521H85.6251L71.1368 73.407L58.2042 73.5406L56.6999 73.5566L47.3569 73.6567H47.3461L41.2867 73.7208H41.2217L22.0619 73.9251L16.3302 73.9865C15.8422 73.9921 15.3543 73.968 14.8692 73.9144C14.704 73.8958 14.5388 73.8744 14.375 73.849C11.7018 73.4421 9.25072 72.1442 7.43005 70.1715C4.96433 67.4969 3.17021 64.3762 1.9651 60.9898C1.79088 60.5011 1.6284 60.0061 1.47764 59.5049C-2.69419 45.5974 2.39163 27.6546 11.545 15.6473C11.9287 15.1452 12.3186 14.6556 12.7149 14.1785L12.7244 14.1678C15.5395 10.76 18.6958 7.91309 22.0579 5.88873C28.0157 2.29536 34.6167 1.28318 41.1094 4.29969C46.6027 6.85284 51.7319 8.0533 56.7039 8.37912C57.2063 8.41117 57.7087 8.4352 58.2083 8.44989C69.6135 8.80375 80.3024 4.75103 92.8544 2.13512C93.354 2.03096 93.855 1.92814 94.3601 1.83066C103.314 0.0733664 113.248 -0.853352 125.06 1.09489C126.288 1.29261 127.499 1.57824 128.684 1.9495C129.205 2.11509 129.707 2.29313 130.19 2.48364C135.828 4.74569 138.903 8.92527 140.21 14.1624C140.333 14.6485 140.44 15.143 140.531 15.646C142.847 28.2435 136.062 46.1129 130.19 58.5168Z" fill="#F0E8E8"/>
<path opacity="0.1" d="M67.299 59.5037C67.2444 60.0031 67.1599 60.4989 67.0458 60.9885H79.7332V59.5037H67.299ZM56.7035 67.8909L58.2079 67.8788V64.2107C57.692 64.188 57.1896 64.1653 56.7035 64.1413V67.8909ZM25.165 59.5037V60.9885H52.0429V59.5037H25.165ZM140.216 14.1665H130.196V2.4837C129.713 2.29052 129.211 2.11247 128.69 1.94956V14.1665H94.3597V1.82538C93.8546 1.92286 93.3536 2.02568 92.854 2.12983V14.1665H58.2079V8.44461C57.7083 8.42992 57.2059 8.40589 56.7035 8.37384V14.1665H22.0574V5.88745C18.6953 7.91182 15.539 10.7587 12.724 14.1665H12.7145V14.1772C12.3173 14.6579 11.9273 15.1475 11.5446 15.646H12.7145V59.5037H1.47588C1.62572 60.0048 1.78821 60.4998 1.96333 60.9885H12.7131V73.4899C13.254 73.653 13.8061 73.7775 14.3651 73.8625C14.5289 73.8878 14.6941 73.9092 14.8593 73.9279C15.3444 73.9814 15.8323 74.0055 16.3203 74L22.052 73.9386V60.9859H56.7035V73.566L58.2079 73.55V60.9885H92.854V73.1881L94.3597 73.1721V60.9885H128.684V61.6255C128.786 61.4145 128.892 61.2035 128.998 60.9885C129.235 60.5034 129.476 60.0084 129.719 59.5037C129.876 59.1796 130.032 58.8502 130.189 58.5155V15.6514H140.537C140.446 15.1449 140.339 14.6499 140.216 14.1665ZM22.0574 59.5037V15.646H56.7035V59.5037H22.0574ZM58.2106 59.5037V15.646H92.854V59.5037H58.2106ZM128.686 59.5037H94.3597V15.646H128.684L128.686 59.5037Z" fill="black"/>
<path d="M116.867 71.2599V72.9958L96.2961 73.1828L96.0767 73.1868L88.2584 73.2576L88.0716 73.2602L85.6952 73.2803H85.6248L71.1392 73.4125L47.3607 73.6301H47.3404L41.2945 73.6862L41.2295 73.6875L14.3652 73.9306V71.9276L20.6818 68.1887L33.3557 68.0845L33.6265 68.0832L33.7159 68.0818L33.9867 68.0778L40.0718 68.0284L40.344 68.0271L40.4306 68.0257L40.7015 68.0244L42.6526 68.0084L42.7041 68.0071L47.5177 67.967H47.557L85.1184 67.6545L86.0378 67.6478H86.1299L86.8313 67.6412L91.9293 67.5998L92.2001 67.5958L92.4506 67.5931H92.5806L94.1661 67.5811L94.4803 67.5771L94.9014 67.5744L96.2216 67.5624L98.3163 67.545L98.5871 67.5424L99.0583 67.5397H99.1463L109.262 67.4542L116.867 71.2599Z" fill="#65617D"/>
<path opacity="0.2" d="M116.867 71.2599V72.9958L96.2961 73.1828L96.0767 73.1868L88.2584 73.2576L88.0716 73.2602L85.6952 73.2803H85.6248L71.1392 73.4125L47.3607 73.6301H47.3404L41.2945 73.6862L41.2295 73.6875L14.3652 73.9306V71.9276L20.6818 68.1887L33.3557 68.0845L33.6265 68.0832L33.7159 68.0818L33.9867 68.0778L40.0718 68.0284L40.344 68.0271L40.4306 68.0257L40.7015 68.0244L42.6526 68.0084L42.7041 68.0071L47.5177 67.967H47.557L85.1184 67.6545L86.0378 67.6478H86.1299L86.8313 67.6412L91.9293 67.5998L92.2001 67.5958L92.4506 67.5931H92.5806L94.1661 67.5811L94.4803 67.5771L94.9014 67.5744L96.2216 67.5624L98.3163 67.545L98.5871 67.5424L99.0583 67.5397H99.1463L109.262 67.4542L116.867 71.2599Z" fill="black"/>
<path d="M40.0935 64.5846V67.8548C40.0936 68.0097 40.0491 68.1614 39.9652 68.2924C39.8813 68.4233 39.7614 68.5281 39.6196 68.5946C39.5139 68.6451 39.3984 68.6724 39.2811 68.6747L34.5554 68.7735C34.4292 68.7765 34.304 68.7504 34.1898 68.6974C34.0455 68.6321 33.9231 68.5273 33.8374 68.3955C33.7517 68.2636 33.7063 68.1102 33.7064 67.9536V64.5846H40.0935Z" fill="#3F3D56"/>
<path opacity="0.1" d="M40.0935 64.5846V67.8548C40.0936 68.0097 40.0491 68.1614 39.9652 68.2924C39.8813 68.4233 39.7614 68.5281 39.6196 68.5946C39.5139 68.6451 39.3984 68.6724 39.2811 68.6747L34.5554 68.7735C34.4292 68.7765 34.304 68.7504 34.1898 68.6974C34.0455 68.6321 33.9231 68.5273 33.8374 68.3955C33.7517 68.2636 33.7063 68.1102 33.7064 67.9536V64.5846H40.0935Z" fill="black"/>
<path d="M40.3643 64.5846V67.8548C40.3644 68.0097 40.3199 68.1614 40.236 68.2924C40.1521 68.4233 40.0323 68.5281 39.8904 68.5946C39.7848 68.6451 39.6693 68.6724 39.5519 68.6747L34.8263 68.7735C34.7001 68.7765 34.5749 68.7504 34.4607 68.6974C34.3163 68.6321 34.194 68.5273 34.1083 68.3955C34.0226 68.2636 33.9771 68.1102 33.9773 67.9536V64.5846H40.3643Z" fill="#3F3D56"/>
<path d="M98.587 64.5833H92.2V68.7896H98.587V64.5833Z" fill="#3F3D56"/>
<path opacity="0.1" d="M98.587 64.5833H92.2V68.7896H98.587V64.5833Z" fill="black"/>
<path d="M98.3162 64.5833H91.9292V68.7896H98.3162V64.5833Z" fill="#3F3D56"/>
<path opacity="0.1" d="M40.3629 64.5833V65.2469L33.9759 65.4152V64.5833H40.3629Z" fill="black"/>
<path d="M51.6368 41.7104V64.1706C51.6351 64.3077 51.5801 64.4389 51.483 64.5371C51.386 64.6353 51.2544 64.6929 51.1154 64.6981L25.1651 65.3791H25.1583C25.017 65.3774 24.882 65.3212 24.782 65.2227C24.6821 65.1242 24.6252 64.991 24.6234 64.8516V41.7104C24.6252 41.571 24.6821 41.4379 24.782 41.3393C24.882 41.2408 25.017 41.1847 25.1583 41.1829H51.1019C51.2432 41.1847 51.3782 41.2408 51.4782 41.3393C51.5781 41.4379 51.635 41.571 51.6368 41.7104Z" fill="#65617D"/>
<path opacity="0.1" d="M25.1651 41.1829V65.3791H25.1583C25.017 65.3774 24.882 65.3212 24.782 65.2227C24.6821 65.1242 24.6252 64.991 24.6234 64.8516V41.7104C24.6252 41.571 24.6821 41.4379 24.782 41.3393C24.882 41.2408 25.017 41.1847 25.1583 41.1829H25.1651Z" fill="black"/>
<path d="M26.3484 42.6171H50.3829V62.4133L26.3484 62.9475V42.6171Z" fill="#BE6F72"/>
<path opacity="0.1" d="M98.3162 64.5833V65.4392L91.9292 65.271V64.5833H98.3162Z" fill="black"/>
<path d="M106.747 41.7104V64.8516C106.745 64.9921 106.687 65.1263 106.586 65.225C106.484 65.3238 106.347 65.3791 106.205 65.3791L80.2492 64.6981C80.1102 64.6929 79.9786 64.6353 79.8816 64.5371C79.7846 64.4389 79.7295 64.3077 79.7279 64.1706V41.7104C79.7296 41.571 79.7865 41.4379 79.8865 41.3393C79.9864 41.2408 80.1214 41.1847 80.2627 41.1829H106.206C106.349 41.1833 106.485 41.2388 106.586 41.3375C106.687 41.4362 106.745 41.5701 106.747 41.7104Z" fill="#65617D"/>
<path opacity="0.1" d="M106.747 41.7104V64.8516C106.745 64.9921 106.687 65.1263 106.586 65.225C106.484 65.3238 106.347 65.3791 106.205 65.3791V41.1829C106.347 41.1829 106.484 41.2383 106.586 41.337C106.687 41.4357 106.745 41.5699 106.747 41.7104Z" fill="black"/>
<path d="M105.019 42.6171H80.9844V62.4133L105.019 62.9475V42.6171Z" fill="#BE6F72"/>
<path d="M79.0562 41.7104V64.1706C79.0545 64.3077 78.9995 64.4389 78.9025 64.5371C78.8054 64.6353 78.6738 64.6929 78.5349 64.6981L52.5845 65.3791C52.442 65.3791 52.3053 65.3238 52.2039 65.225C52.1025 65.1263 52.0447 64.9921 52.0429 64.8516V41.7104C52.0446 41.571 52.1015 41.4379 52.2015 41.3393C52.3014 41.2408 52.4364 41.1847 52.5777 41.1829H78.5213C78.6626 41.1847 78.7977 41.2408 78.8976 41.3393C78.9975 41.4379 79.0544 41.571 79.0562 41.7104Z" fill="#65617D"/>
<path d="M53.768 42.6171H77.8024V62.4133L53.768 62.9475V42.6171Z" fill="#BE6F72"/>
<path opacity="0.1" d="M116.867 71.2599V72.9958L96.2961 73.1828L96.0767 73.1868L88.2584 73.2575L88.0716 73.2602L85.6952 73.2802H85.6248L71.1392 73.4124L47.3607 73.6301H47.3404L41.2945 73.6862L41.2295 73.6875L14.3652 73.9306V71.9276L41.7861 71.75H41.851L47.4013 71.7126H47.427L85.7575 71.4629H85.7968L85.8198 71.4615H85.8834L86.532 71.4575H86.7297L96.816 71.3907L97.4118 71.3881L97.5445 71.3867L116.867 71.2599Z" fill="black"/>
<path d="M65.9775 46.6671C69.816 46.6671 72.9278 43.5984 72.9278 39.8129C72.9278 36.0274 69.816 32.9586 65.9775 32.9586C62.1389 32.9586 59.0271 36.0274 59.0271 39.8129C59.0271 43.5984 62.1389 46.6671 65.9775 46.6671Z" fill="#FBBEBE"/>
<path d="M72.9291 50.3634C72.9291 50.3634 59.4563 51.9658 60.7427 50.3634C61.2085 49.7838 61.3371 48.0666 61.3114 46.1103C61.3033 45.5161 61.2816 44.9005 61.2505 44.2876C61.1015 41.3499 60.7427 38.4789 60.7427 38.4789C60.7427 38.4789 72.5229 33.0041 71.1689 37.3439C70.6273 39.0972 70.8046 41.5595 71.2163 43.871C71.3368 44.5453 71.4762 45.2063 71.6225 45.8339C71.9794 47.3647 72.4155 48.8765 72.9291 50.3634Z" fill="#FBBEBE"/>
<path d="M68.5326 49.8198C70.0911 49.5354 71.7417 49.0186 73.2081 49.6142C73.594 49.7704 73.9488 49.9988 74.3442 50.1296C74.7396 50.2605 75.1729 50.2925 75.5845 50.3847C77.0306 50.7078 78.2032 51.7935 78.9561 53.0553C79.7089 54.3172 80.0989 55.7447 80.4807 57.1575L81.415 60.6066C82.2275 63.6045 83.0399 66.6276 83.2281 69.7269C71.9173 70.3654 60.5806 70.4291 49.2631 69.9179C49.9997 68.5372 50.7526 67.0723 50.6903 65.5113C50.628 63.9503 49.7167 62.4107 50.0457 60.8724C50.2556 59.8922 50.9354 59.0844 51.3511 58.1723C52.5358 55.5658 51.6137 52.0579 53.6963 50.0736C54.6333 49.1816 55.9982 48.8437 57.3021 48.8864C58.9649 48.9412 60.6669 49.4526 62.3121 49.7023C64.419 50.0175 66.4094 50.2044 68.5326 49.8198Z" fill="#FF6584"/>
<path opacity="0.1" d="M86.2571 64.6647L86.2435 64.8557V64.869L86.2205 65.1762L86.0404 67.6479L85.8224 70.6256L85.7601 71.4642L85.6247 73.2589V73.2816L71.1364 73.4152L47.3606 73.6689V73.781H47.3416V73.6689V73.6315L47.4026 71.7139L47.519 67.967L47.6192 64.7902L47.6287 64.4738C47.6346 64.2828 47.68 64.0949 47.762 63.9218C47.844 63.7486 47.9609 63.5938 48.1056 63.4667C48.2503 63.3396 48.4198 63.2429 48.6037 63.1826C48.7875 63.1222 48.9819 63.0995 49.175 63.1157C49.8141 63.1692 50.6442 63.2346 51.6367 63.304L52.0429 63.3334C57.7746 63.726 68.3673 64.2334 79.0562 63.6005C79.281 63.5885 79.5071 63.5751 79.7333 63.5591C81.3906 63.4563 83.0466 63.3241 84.6864 63.1585C84.8937 63.1371 85.1032 63.1607 85.3002 63.2278C85.4972 63.2949 85.6769 63.4037 85.8267 63.5467C85.9764 63.6896 86.0926 63.8632 86.1669 64.0553C86.2413 64.2473 86.2721 64.453 86.2571 64.6581V64.6647Z" fill="black"/>
<path d="M47.3565 73.781V73.6688L71.1363 73.4138L85.6246 73.2803H85.6653V73.2576L85.8007 71.4629L85.8589 70.6617L86.081 67.6425L86.2556 65.2522V65.1935C86.2637 65.0834 86.2587 64.9727 86.2407 64.8637C86.2415 64.8592 86.2415 64.8547 86.2407 64.8503C86.2035 64.625 86.1105 64.4121 85.9699 64.2307C85.8208 64.0422 85.6255 63.8942 85.4023 63.8007C85.1791 63.7073 84.9355 63.6714 84.6944 63.6966C83.0547 63.8622 81.3986 63.9944 79.7413 64.0972C79.5152 64.1132 79.289 64.1266 79.0643 64.1386C68.3754 64.7648 57.7827 64.2574 52.051 63.8715L51.6447 63.8421C50.6522 63.7727 49.8222 63.7086 49.1831 63.6539C48.8315 63.6246 48.4814 63.7248 48.2003 63.9352C47.9192 64.1455 47.7272 64.4511 47.6611 64.7929C47.6475 64.8652 47.6393 64.9384 47.6368 65.0119L47.5447 67.971L47.4187 71.7193L47.3592 73.6368V73.6742V73.7864L47.3565 73.781Z" fill="#3F3D56"/>
<path opacity="0.1" d="M86.2977 65.6007L86.1312 67.6478L85.8834 70.699L85.8211 71.4628L85.6857 73.1734L85.6776 73.2588V73.2815L85.6573 73.4791L85.6722 73.2815H85.6329L71.1446 73.4151L47.3607 73.6688V73.6314L47.427 71.7138L47.5624 67.9669L47.6491 65.4765C47.6534 65.3349 47.6935 65.1965 47.7659 65.074C47.8382 64.9516 47.9405 64.849 48.0634 64.7755C48.2168 64.6828 48.396 64.6407 48.5753 64.6553C48.8596 64.678 49.209 64.7047 49.6165 64.7341C50.2787 64.7822 51.0952 64.8382 52.0457 64.897C53.806 65.0065 56.0144 65.124 58.5451 65.2201C65.5862 65.4872 75.0916 65.5767 84.1204 64.7968C84.5267 64.7621 84.9464 64.7234 85.3567 64.6847C85.5191 64.6687 85.6827 64.6993 85.8279 64.7728C85.869 64.793 85.908 64.8172 85.9443 64.8449C86.0622 64.9291 86.1556 65.0424 86.2152 65.1734C86.229 65.1995 86.2403 65.2267 86.249 65.2549C86.2897 65.3655 86.3063 65.4833 86.2977 65.6007Z" fill="black"/>
<path opacity="0.1" d="M40.3643 67.4288V67.8548C40.3644 68.0097 40.3199 68.1614 40.236 68.2924C40.1521 68.4234 40.0323 68.5281 39.8904 68.5946L34.4607 68.6974C34.3163 68.6322 34.194 68.5274 34.1083 68.3955C34.0226 68.2636 33.9771 68.1103 33.9773 67.9536V67.553L40.3643 67.4288Z" fill="black"/>
<path d="M40.4306 68.8456L33.3557 68.9791V67.8214L40.4306 67.6879V68.8456Z" fill="#3F3D56"/>
<path opacity="0.1" d="M40.4306 68.8456L33.3557 68.9791V67.8214L40.4306 67.6879V68.8456Z" fill="black"/>
<path d="M40.7013 68.8456L33.6264 68.9791V67.8214L40.7013 67.6879V68.8456Z" fill="#3F3D56"/>
<path opacity="0.1" d="M91.9698 67.6959V68.1219C91.9697 68.2768 92.0142 68.4285 92.0981 68.5595C92.182 68.6904 92.3018 68.7952 92.4437 68.8617L97.8734 68.9645C98.0178 68.8992 98.1401 68.7944 98.2258 68.6626C98.3115 68.5307 98.357 68.3773 98.3568 68.2207V67.8201L91.9698 67.6959Z" fill="black"/>
<path opacity="0.1" d="M91.9021 69.1127L98.9771 69.2462V68.0885L91.9021 67.955V69.1127Z" fill="black"/>
<path d="M91.6312 69.1127L98.7062 69.2462V68.0885L91.6312 67.955V69.1127Z" fill="#3F3D56"/>
<path d="M61.5809 41.9133C61.5917 42.848 61.153 43.7294 60.7806 44.5933C59.4249 47.7404 58.8377 51.1576 59.0664 54.5696C59.1652 56.0384 59.4157 57.5073 59.1652 58.9628C58.9147 60.4183 58.0238 61.8698 56.5926 62.2878C58.9662 63.6832 62.1794 63.5363 64.4136 61.9326C65.6038 61.078 66.4907 59.8855 67.3586 58.7131C67.2555 60.8192 66.6372 62.8694 65.5564 64.6887C67.51 64.5181 69.4055 63.9448 71.1202 63.0058C72.8349 62.0668 74.3304 60.7831 75.51 59.2379C76.0936 58.4621 76.6014 57.6101 76.8261 56.67C77.2445 54.9341 76.661 53.1301 76.2155 51.3955C75.8432 49.9454 75.5642 48.4736 75.38 46.9889C75.3218 46.5135 75.2744 46.0248 75.3936 45.5601C75.529 45.0166 75.8905 44.5573 76.1572 44.0619C76.9155 42.6544 76.9331 40.9505 76.5445 39.4042C76.1559 37.8579 75.3949 36.4318 74.6407 35.023C74.0368 33.8933 73.3814 32.7115 72.2765 32.0479C71.586 31.6339 70.7871 31.4617 69.9909 31.2948L66.5557 30.5697C65.8042 30.4108 65.031 30.2519 64.2714 30.368C62.9891 30.5657 62.0859 31.479 61.2925 32.4164C60.671 33.1455 59.1517 34.5142 59.0447 35.469C58.9473 36.349 59.7353 37.8232 59.8694 38.7512C60.0454 39.953 60.17 39.5524 60.8578 40.2895C61.2925 40.7462 61.5728 41.2737 61.5809 41.9133Z" fill="#3F3D56"/>
<path d="M40.6567 44.5453H27.1703C27.1524 44.5453 27.1352 44.5382 27.1225 44.5257C27.1098 44.5132 27.1026 44.4962 27.1026 44.4785C27.1026 44.4608 27.1098 44.4438 27.1225 44.4313C27.1352 44.4188 27.1524 44.4117 27.1703 44.4117H40.6567C40.6747 44.4117 40.6919 44.4188 40.7046 44.4313C40.7173 44.4438 40.7244 44.4608 40.7244 44.4785C40.7244 44.4962 40.7173 44.5132 40.7046 44.5257C40.6919 44.5382 40.6747 44.5453 40.6567 44.5453Z" fill="#F2F2F2"/>
<path d="M40.6567 45.7471H27.1703C27.1524 45.7471 27.1352 45.7401 27.1225 45.7276C27.1098 45.715 27.1026 45.6981 27.1026 45.6804C27.1026 45.6626 27.1098 45.6457 27.1225 45.6331C27.1352 45.6206 27.1524 45.6136 27.1703 45.6136H40.6567C40.6747 45.6136 40.6919 45.6206 40.7046 45.6331C40.7173 45.6457 40.7244 45.6626 40.7244 45.6804C40.7244 45.6981 40.7173 45.715 40.7046 45.7276C40.6919 45.7401 40.6747 45.7471 40.6567 45.7471Z" fill="#F2F2F2"/>
<path d="M40.6567 46.9488H27.1703C27.1524 46.9488 27.1352 46.9418 27.1225 46.9293C27.1098 46.9168 27.1026 46.8998 27.1026 46.8821C27.1026 46.8644 27.1098 46.8474 27.1225 46.8349C27.1352 46.8223 27.1524 46.8153 27.1703 46.8153H40.6567C40.6747 46.8153 40.6919 46.8223 40.7046 46.8349C40.7173 46.8474 40.7244 46.8644 40.7244 46.8821C40.7244 46.8998 40.7173 46.9168 40.7046 46.9293C40.6919 46.9418 40.6747 46.9488 40.6567 46.9488Z" fill="#F2F2F2"/>
</g>
<defs>
<clipPath id="clip0">
<rect width="141" height="74" fill="white"/>
</clipPath>
</defs>
</svg>
