<svg width="56" height="55" viewBox="0 0 56 55" fill="none" xmlns="http://www.w3.org/2000/svg">
<path d="M6.11306 55H48.8908C52.2659 55 55.002 52.264 55.002 48.8889V6.11111C55.002 2.73604 52.2659 0 48.8908 0H6.11306C2.73799 0 0.00195312 2.73604 0.00195312 6.11111V48.8889C0.00195313 52.264 2.73799 55 6.11306 55Z" fill="#8F3F4E"/>
<path fill-rule="evenodd" clip-rule="evenodd" d="M11.8861 16.8415C9.18815 16.8415 7.00195 14.6382 7.00195 11.9208C7.00195 9.20335 9.18815 7 11.8861 7C14.584 7 16.7689 9.20335 16.7689 11.9208C16.7689 14.6382 14.584 16.8415 11.8861 16.8415ZM47.002 47H38.7832V33.0016C38.7832 29.1637 37.3249 27.0189 34.2871 27.0189C30.9824 27.0189 29.2559 29.2509 29.2559 33.0016V47H21.3353V20.3333H29.2559V23.9253C29.2559 23.9253 31.6374 19.5186 37.2962 19.5186C42.9525 19.5186 47.002 22.9727 47.002 30.1163V47ZM16.0553 47H7.79622V20.3333H16.0553V47Z" fill="white"/>
</svg>
