<svg width="25" height="26" viewBox="0 0 25 26" fill="none" xmlns="http://www.w3.org/2000/svg">
<path fill-rule="evenodd" clip-rule="evenodd" d="M18.3824 15.1637C21.9213 15.1637 24.8246 17.8982 24.9923 21.3522L25 21.6682V25.2418C25 25.6605 24.6708 26 24.2647 26C23.9037 26 23.6035 25.7318 23.5413 25.3781L23.5294 25.2418V21.6682C23.5294 19.0143 21.3841 16.8302 18.6656 16.6875L18.3824 16.6801H6.61765C3.86142 16.6801 1.62426 18.7758 1.47818 21.3954L1.47059 21.6682V25.2418C1.47059 25.6605 1.14139 26 0.735294 26C0.374324 26 0.0741052 25.7318 0.0118464 25.3781L0 25.2418V21.6682C0 18.1724 2.79922 15.3351 6.29773 15.1712L6.61765 15.1637H18.3824ZM12.5 0C16.1462 0 19.1176 2.9027 19.1176 6.50444C19.1176 10.1062 16.1462 13.0089 12.5 13.0089C8.8538 13.0089 5.88235 10.1062 5.88235 6.50444C5.88235 2.9027 8.8538 0 12.5 0ZM12.5 1.51637C9.64873 1.51637 7.35294 3.75905 7.35294 6.50444C7.35294 9.24984 9.64873 11.4925 12.5 11.4925C15.3513 11.4925 17.6471 9.24984 17.6471 6.50444C17.6471 3.75905 15.3513 1.51637 12.5 1.51637Z" fill="#8F3F4E"/>
</svg>
