<svg width="40" height="40" viewBox="0 0 40 40" fill="none" xmlns="http://www.w3.org/2000/svg">
<path fill-rule="evenodd" clip-rule="evenodd" d="M35.113 0C37.8102 0 40 2.18984 40 4.88703V35.113C40 37.8102 37.8102 40 35.113 40H4.88703C2.18984 40 0 37.8102 0 35.113V4.88703C0 2.18984 2.18977 0 4.88703 0H35.113ZM33.5895 10.7282H25.8164L20.2753 24.5505L13.9728 10.7282H5.81894V11.2008L8.44503 14.3643C8.70293 14.5966 8.83449 14.938 8.79949 15.2832V27.714C8.87589 28.1623 8.73464 28.6205 8.41886 28.9479L5.46449 32.5313V33.0038H13.8416V32.5313L10.8872 28.9479C10.569 28.6212 10.4189 28.166 10.4802 27.714V16.9634L17.8332 33.0038H18.6867L25.0023 16.9634V29.7487C25.0023 30.0898 25.0023 30.1555 24.779 30.3786L22.5075 32.584V33.0565H33.5368V32.584L31.3442 30.4312C31.1506 30.2837 31.0546 30.0411 31.0946 29.8011V13.9837C31.0546 13.7436 31.1506 13.501 31.3442 13.3535L33.5895 11.2008V10.7282Z" fill="black"/>
</svg>
