<svg width="107" height="82" viewBox="0 0 107 82" fill="none" xmlns="http://www.w3.org/2000/svg">
<g clip-path="url(#clip0)">
<path opacity="0.1" d="M33.4097 82C46.0486 82 56.2944 80.4591 56.2944 78.5582C56.2944 76.6573 46.0486 75.1163 33.4097 75.1163C20.7709 75.1163 10.5251 76.6573 10.5251 78.5582C10.5251 80.4591 20.7709 82 33.4097 82Z" fill="#BE6F72"/>
<path opacity="0.1" d="M33.0387 3.61697C36.6685 0.442827 42.367 -0.207299 47.5548 0.048927C63.8468 0.844375 78.5517 8.55697 91.2756 17.283C95.8814 20.4428 100.416 23.8464 103.405 28.1975C109.491 37.0526 107.685 49.3208 99.2231 56.6156C96.3439 59.1014 92.8539 61.0011 89.2714 62.6876C82.9003 65.6868 76.0262 68.0942 68.7956 68.7797C63.6396 69.2682 58.42 68.8705 53.2938 68.1888C38.9714 66.2843 24.913 62.07 13.1305 54.8641C7.96292 51.7072 3.09211 47.7739 0.961664 42.6599C-1.16878 37.5459 0.190813 31.0657 5.47211 28.0397C7.65458 26.7873 10.2639 26.2232 12.8183 25.6907C16.5762 24.9096 20.3996 24.139 23.7933 22.5509C27.2978 20.9094 31.4479 17.7362 30.7541 14.105C30.0093 10.2071 29.4099 6.78538 33.0387 3.61697Z" fill="#BE6F72"/>
<path d="M88.7279 8.45737C89.3793 12.7176 87.5668 16.5237 87.5668 16.5237C87.5668 16.5237 84.6983 13.4232 84.045 9.16295C83.6798 6.77278 84.0893 4.52794 84.519 3.01544C84.5733 2.81901 84.6838 2.64243 84.8372 2.50714C84.9906 2.37184 85.1803 2.28365 85.3833 2.25328C85.5862 2.22291 85.7937 2.25165 85.9805 2.33603C86.1673 2.42042 86.3254 2.5568 86.4356 2.72862C87.2999 4.04417 88.3627 6.06816 88.7279 8.45737Z" fill="#BE6F72"/>
<path d="M100.84 15.2473C101.485 15.2443 102.128 15.325 102.753 15.4873C103.804 15.755 103.82 17.2321 102.775 17.5228C102.154 17.6982 101.513 17.7927 100.868 17.8039C98.5043 17.8297 96.5742 16.5715 96.5742 16.5715C96.5742 16.5715 98.4763 15.2731 100.84 15.2473Z" fill="#BE6F72"/>
<path d="M94.1932 8.77093C91.9934 11.1697 91.528 14.3046 91.528 14.3046C91.528 14.3046 94.6288 13.5494 96.8276 11.1496C97.8471 10.0377 98.4946 8.76806 98.8954 7.72595C98.9713 7.52868 98.9856 7.3133 98.9365 7.10784C98.8873 6.90239 98.777 6.71638 98.6198 6.57403C98.4626 6.43168 98.2658 6.33957 98.0551 6.30971C97.8445 6.27984 97.6296 6.3136 97.4385 6.40658C96.4249 6.90086 95.2127 7.65903 94.1932 8.77093Z" fill="#BE6F72"/>
<path d="M96.9018 8.31873H51.1903C50.1366 8.31873 49.2825 9.16626 49.2825 10.2117V65.6034C49.2825 66.6489 50.1366 67.4964 51.1903 67.4964H96.9018C97.9555 67.4964 98.8097 66.6489 98.8097 65.6034V10.2117C98.8097 9.16626 97.9555 8.31873 96.9018 8.31873Z" fill="#464353"/>
<path opacity="0.1" d="M94.5372 14.2885H53.5549V61.5268H94.5372V14.2885Z" fill="#BE6F72"/>
<path d="M74.0461 66.3721C75.0093 66.3721 75.7902 65.5973 75.7902 64.6416C75.7902 63.6859 75.0093 62.9111 74.0461 62.9111C73.0829 62.9111 72.3021 63.6859 72.3021 64.6416C72.3021 65.5973 73.0829 66.3721 74.0461 66.3721Z" fill="white"/>
<path d="M74.046 12.5972C73.8831 12.5972 73.7238 12.5492 73.5883 12.4594C73.4529 12.3696 73.3473 12.2419 73.2849 12.0925C73.2226 11.9432 73.2062 11.7788 73.238 11.6202C73.2698 11.4617 73.3483 11.316 73.4635 11.2017C73.5787 11.0874 73.7255 11.0095 73.8853 10.978C74.0451 10.9464 74.2108 10.9626 74.3613 11.0245C74.5119 11.0864 74.6405 11.1911 74.731 11.3256C74.8216 11.46 74.8699 11.618 74.8699 11.7797C74.8694 11.9964 74.7824 12.204 74.628 12.3572C74.4736 12.5104 74.2644 12.5967 74.046 12.5972Z" fill="white"/>
<path d="M74.0461 11.0101C74.1995 11.0101 74.3495 11.0552 74.477 11.1398C74.6046 11.2244 74.704 11.3446 74.7627 11.4852C74.8214 11.6258 74.8368 11.7806 74.8069 11.9299C74.7769 12.0792 74.7031 12.2163 74.5946 12.324C74.4861 12.4316 74.3479 12.5049 74.1974 12.5346C74.047 12.5643 73.891 12.549 73.7493 12.4908C73.6075 12.4325 73.4864 12.3339 73.4012 12.2073C73.3159 12.0808 73.2704 11.932 73.2704 11.7797C73.2707 11.5757 73.3525 11.3801 73.4979 11.2358C73.6433 11.0915 73.8405 11.0104 74.0461 11.0101ZM74.0461 10.9145C73.8734 10.9136 73.7044 10.9635 73.5603 11.058C73.4163 11.1525 73.3038 11.2873 73.237 11.4453C73.1703 11.6033 73.1523 11.7774 73.1854 11.9456C73.2185 12.1137 73.3012 12.2684 73.423 12.3899C73.5447 12.5113 73.7001 12.5942 73.8694 12.628C74.0387 12.6618 74.2142 12.6449 74.3739 12.5796C74.5335 12.5142 74.67 12.4033 74.766 12.2609C74.862 12.1185 74.9133 11.9511 74.9133 11.7797C74.9139 11.6663 74.892 11.5539 74.8487 11.449C74.8054 11.344 74.7416 11.2486 74.661 11.1682C74.5804 11.0878 74.4846 11.024 74.3791 10.9805C74.2736 10.9369 74.1604 10.9145 74.0461 10.9145Z" fill="white"/>
<path d="M63.5442 28.922H55.8733C55.6444 28.922 55.4589 29.1061 55.4589 29.3331V39.9761C55.4589 40.2031 55.6444 40.3872 55.8733 40.3872H63.5442C63.773 40.3872 63.9585 40.2031 63.9585 39.9761V29.3331C63.9585 29.1061 63.773 28.922 63.5442 28.922Z" fill="white" stroke="white" stroke-miterlimit="10"/>
<path opacity="0.5" d="M62.4736 31.8112H56.9437C56.5638 31.8112 56.2558 32.1168 56.2558 32.4938V34.7664C56.2558 35.1434 56.5638 35.4491 56.9437 35.4491H62.4736C62.8536 35.4491 63.1616 35.1434 63.1616 34.7664V32.4938C63.1616 32.1168 62.8536 31.8112 62.4736 31.8112Z" fill="#BE6F72"/>
<path d="M61.5572 36.9329H57.86C57.7701 36.9329 57.6972 37.0052 57.6972 37.0944V37.3363C57.6972 37.4256 57.7701 37.4979 57.86 37.4979H61.5572C61.6472 37.4979 61.7201 37.4256 61.7201 37.3363V37.0944C61.7201 37.0052 61.6472 36.9329 61.5572 36.9329Z" fill="#BE6F72"/>
<path d="M77.9139 28.922H70.2429C70.0141 28.922 69.8286 29.1061 69.8286 29.3331V39.9761C69.8286 40.2031 70.0141 40.3872 70.2429 40.3872H77.9139C78.1427 40.3872 78.3282 40.2031 78.3282 39.9761V29.3331C78.3282 29.1061 78.1427 28.922 77.9139 28.922Z" fill="white" stroke="white" stroke-miterlimit="10"/>
<path opacity="0.5" d="M75.9963 30.7127H72.2047C72.127 30.7127 72.064 30.7752 72.064 30.8523V32.7185C72.064 32.7956 72.127 32.8581 72.2047 32.8581H75.9963C76.074 32.8581 76.137 32.7956 76.137 32.7185V30.8523C76.137 30.7752 76.074 30.7127 75.9963 30.7127Z" fill="#BE6F72"/>
<path d="M76.5051 34.8688H71.6314C71.5415 34.8688 71.4686 34.9411 71.4686 35.0304V35.2722C71.4686 35.3615 71.5415 35.4338 71.6314 35.4338H76.5051C76.595 35.4338 76.668 35.3615 76.668 35.2722V35.0304C76.668 34.9411 76.595 34.8688 76.5051 34.8688Z" fill="#BE6F72"/>
<path d="M76.5051 35.9223H71.6314C71.5415 35.9223 71.4686 35.9946 71.4686 36.0839V36.3258C71.4686 36.415 71.5415 36.4873 71.6314 36.4873H76.5051C76.595 36.4873 76.668 36.415 76.668 36.3258V36.0839C76.668 35.9946 76.595 35.9223 76.5051 35.9223Z" fill="#BE6F72"/>
<path d="M92.219 20.7772H84.5481C84.3192 20.7772 84.1337 20.9613 84.1337 21.1883V31.8313C84.1337 32.0583 84.3192 32.2424 84.5481 32.2424H92.219C92.4478 32.2424 92.6333 32.0583 92.6333 31.8313V21.1883C92.6333 20.9613 92.4478 20.7772 92.219 20.7772Z" fill="white" stroke="white" stroke-miterlimit="10"/>
<path opacity="0.5" d="M91.0097 22.5565H85.7573C85.6796 22.5565 85.6166 22.619 85.6166 22.6961V24.9792C85.6166 25.0563 85.6796 25.1188 85.7573 25.1188H91.0097C91.0874 25.1188 91.1504 25.0563 91.1504 24.9792V22.6961C91.1504 22.619 91.0874 22.5565 91.0097 22.5565Z" fill="#BE6F72"/>
<path opacity="0.5" d="M91.0097 26.2804H85.7573C85.6796 26.2804 85.6166 26.3429 85.6166 26.42V28.7031C85.6166 28.7802 85.6796 28.8427 85.7573 28.8427H91.0097C91.0874 28.8427 91.1504 28.7802 91.1504 28.7031V26.42C91.1504 26.3429 91.0874 26.2804 91.0097 26.2804Z" fill="#BE6F72"/>
<path d="M86.6207 30.9077H85.5434C85.3396 30.9077 85.1744 31.0717 85.1744 31.2739V31.3322C85.1744 31.5344 85.3396 31.6984 85.5434 31.6984H86.6207C86.8245 31.6984 86.9897 31.5344 86.9897 31.3322V31.2739C86.9897 31.0717 86.8245 30.9077 86.6207 30.9077Z" fill="#BE6F72"/>
<path d="M88.9226 30.9077H87.8454C87.6415 30.9077 87.4763 31.0717 87.4763 31.2739V31.3322C87.4763 31.5344 87.6415 31.6984 87.8454 31.6984H88.9226C89.1264 31.6984 89.2917 31.5344 89.2917 31.3322V31.2739C89.2917 31.0717 89.1264 30.9077 88.9226 30.9077Z" fill="#BE6F72"/>
<path d="M91.2245 30.9077H90.1472C89.9434 30.9077 89.7782 31.0717 89.7782 31.2739V31.3322C89.7782 31.5344 89.9434 31.6984 90.1472 31.6984H91.2245C91.4283 31.6984 91.5936 31.5344 91.5936 31.3322V31.2739C91.5936 31.0717 91.4283 30.9077 91.2245 30.9077Z" fill="#BE6F72"/>
<path d="M92.1986 37.0668H84.5277C84.2989 37.0668 84.1134 37.2508 84.1134 37.4779V48.1208C84.1134 48.3479 84.2989 48.5319 84.5277 48.5319H92.1986C92.4275 48.5319 92.613 48.3479 92.613 48.1208V37.4779C92.613 37.2508 92.4275 37.0668 92.1986 37.0668Z" fill="white" stroke="white" stroke-miterlimit="10"/>
<path opacity="0.5" d="M87.1689 38.4072H84.9103C84.8326 38.4072 84.7696 38.4697 84.7696 38.5468V40.8298C84.7696 40.9069 84.8326 40.9694 84.9103 40.9694H87.1689C87.2466 40.9694 87.3096 40.9069 87.3096 40.8298V38.5468C87.3096 38.4697 87.2466 38.4072 87.1689 38.4072Z" fill="#BE6F72"/>
<path d="M90.8005 42.5297H85.9268C85.8369 42.5297 85.764 42.6021 85.764 42.6913V42.9332C85.764 43.0224 85.8369 43.0948 85.9268 43.0948H90.8005C90.8905 43.0948 90.9634 43.0224 90.9634 42.9332V42.6913C90.9634 42.6021 90.8905 42.5297 90.8005 42.5297Z" fill="#BE6F72"/>
<path d="M90.8005 43.6722H85.9268C85.8369 43.6722 85.764 43.7446 85.764 43.8338V44.0757C85.764 44.1649 85.8369 44.2373 85.9268 44.2373H90.8005C90.8905 44.2373 90.9634 44.1649 90.9634 44.0757V43.8338C90.9634 43.7446 90.8905 43.6722 90.8005 43.6722Z" fill="#BE6F72"/>
<path d="M90.8005 44.8147H85.9268C85.8369 44.8147 85.764 44.887 85.764 44.9763V45.2182C85.764 45.3074 85.8369 45.3797 85.9268 45.3797H90.8005C90.8905 45.3797 90.9634 45.3074 90.9634 45.2182V44.9763C90.9634 44.887 90.8905 44.8147 90.8005 44.8147Z" fill="#BE6F72"/>
<path d="M68.8487 34.3812L68.7186 34.4433L67.6645 34.9462L67.5681 34.9911C67.5617 34.9941 67.5547 34.9958 67.5477 34.996C67.5406 34.9962 67.5335 34.9949 67.5269 34.9923C67.5204 34.9897 67.5144 34.9858 67.5094 34.9809C67.5043 34.9759 67.5004 34.97 67.4978 34.9634C67.4967 34.9571 67.4967 34.9506 67.4978 34.9443V34.647C67.4978 34.6335 67.4924 34.6206 67.4828 34.6111C67.4733 34.6016 67.4603 34.5963 67.4467 34.5963H64.8846C64.871 34.5963 64.8579 34.591 64.8482 34.5815C64.8384 34.572 64.8328 34.5591 64.8326 34.5456V34.1259C64.8328 34.1124 64.8384 34.0995 64.8482 34.09C64.8579 34.0805 64.871 34.0752 64.8846 34.0752H67.4496C67.4633 34.075 67.4762 34.0694 67.4858 34.0598C67.4953 34.0501 67.5007 34.0371 67.5007 34.0236V33.7196C67.4997 33.7132 67.4997 33.7068 67.5007 33.7005C67.5034 33.694 67.5074 33.6882 67.5125 33.6833C67.5175 33.6784 67.5235 33.6746 67.5301 33.6721C67.5367 33.6696 67.5437 33.6685 67.5507 33.6687C67.5578 33.669 67.5647 33.6707 67.571 33.6737L67.6674 33.7186L68.7186 34.2263L68.8487 34.2894C68.8575 34.2935 68.8649 34.3 68.8702 34.3081C68.8754 34.3162 68.8781 34.3257 68.8781 34.3353C68.8781 34.3449 68.8754 34.3544 68.8702 34.3625C68.8649 34.3706 68.8575 34.3771 68.8487 34.3812Z" fill="white" stroke="white" stroke-miterlimit="10"/>
<path d="M83.1123 31.8026L83.0275 31.9183L82.3376 32.8514L82.2769 32.9346C82.2726 32.9401 82.2672 32.9447 82.261 32.9481C82.2549 32.9516 82.2481 32.9537 82.2411 32.9545C82.2341 32.9553 82.227 32.9548 82.2203 32.9528C82.2135 32.9509 82.2072 32.9476 82.2017 32.9432C82.1968 32.939 82.1929 32.9337 82.1902 32.9279L82.0495 32.6659C82.0429 32.6539 82.0319 32.6449 82.0188 32.6408C82.0057 32.6367 81.9914 32.6378 81.9791 32.6439L79.7148 33.84C79.7088 33.8432 79.7023 33.8451 79.6956 33.8458C79.6889 33.8464 79.6821 33.8458 79.6757 33.8438C79.6692 33.8419 79.6632 33.8387 79.658 33.8344C79.6528 33.8301 79.6485 33.8249 79.6454 33.819L79.4469 33.447C79.4437 33.4411 79.4417 33.4347 79.441 33.428C79.4404 33.4214 79.4411 33.4146 79.443 33.4082C79.445 33.4018 79.4482 33.3959 79.4525 33.3907C79.4568 33.3856 79.4621 33.3813 79.4681 33.3782L81.7325 32.1841C81.7384 32.181 81.7437 32.1767 81.748 32.1715C81.7523 32.1664 81.7556 32.1604 81.7575 32.154C81.7595 32.1476 81.7602 32.1409 81.7595 32.1343C81.7588 32.1276 81.7569 32.1211 81.7537 32.1152L81.6101 31.8466C81.6064 31.8412 81.6044 31.8349 81.6043 31.8284C81.6034 31.8214 81.6039 31.8143 81.6059 31.8076C81.608 31.8008 81.6114 31.7945 81.6161 31.7892C81.6207 31.7839 81.6264 31.7796 81.6329 31.7766C81.6393 31.7736 81.6463 31.7721 81.6535 31.772H81.7566L82.9244 31.7299L83.0689 31.7252C83.078 31.7252 83.087 31.7276 83.0948 31.7322C83.1027 31.7367 83.1092 31.7433 83.1136 31.7512C83.118 31.7591 83.1202 31.7681 83.12 31.7771C83.1198 31.7861 83.1171 31.7949 83.1123 31.8026Z" fill="white" stroke="white" stroke-miterlimit="10"/>
<path d="M83.1046 36.7034H82.961H81.7941H81.691C81.684 36.7034 81.677 36.702 81.6705 36.6992C81.6641 36.6964 81.6583 36.6924 81.6535 36.6872C81.6487 36.6821 81.645 36.6761 81.6427 36.6695C81.6403 36.6629 81.6394 36.6559 81.6399 36.6489C81.6402 36.6426 81.6418 36.6364 81.6448 36.6307L81.7739 36.3621C81.7768 36.3561 81.7785 36.3495 81.7789 36.3429C81.7793 36.3362 81.7783 36.3295 81.7761 36.3232C81.7739 36.3169 81.7704 36.3111 81.7659 36.3061C81.7613 36.3011 81.7559 36.2971 81.7498 36.2942L79.4372 35.1928C79.4249 35.1869 79.4154 35.1763 79.4109 35.1633C79.4064 35.1504 79.4072 35.1363 79.4132 35.124L79.5962 34.7463C79.599 34.7402 79.603 34.7347 79.608 34.7302C79.613 34.7256 79.6189 34.7221 79.6253 34.7199C79.6317 34.7176 79.6385 34.7167 79.6452 34.7171C79.652 34.7176 79.6586 34.7194 79.6646 34.7224L81.9772 35.8248C81.9896 35.8305 82.0038 35.8311 82.0167 35.8267C82.0297 35.8222 82.0404 35.813 82.0466 35.8009L82.1795 35.5265C82.1831 35.5186 82.1887 35.5118 82.1957 35.5067C82.2028 35.5016 82.211 35.4984 82.2197 35.4974C82.2283 35.4965 82.2371 35.4978 82.2451 35.5012C82.2531 35.5046 82.2601 35.51 82.2653 35.5169L82.3299 35.5963L83.0554 36.5065L83.145 36.6193C83.1517 36.6267 83.1559 36.6359 83.1573 36.6458C83.1587 36.6556 83.1571 36.6656 83.1528 36.6746C83.1485 36.6836 83.1416 36.6911 83.1331 36.6962C83.1245 36.7013 83.1146 36.7038 83.1046 36.7034Z" fill="white" stroke="white" stroke-miterlimit="10"/>
<path d="M40.8734 57.9998L40.8657 58.2799L40.3743 75.4958H39.5476L39.9532 58.2799L39.9609 57.9568L40.8734 57.9998Z" fill="#504F60"/>
<path opacity="0.1" d="M40.8734 57.9998L40.8657 58.2799L40.3743 75.4958H39.5476L39.9532 58.2799L39.9609 57.9568L40.8734 57.9998Z" fill="black"/>
<path d="M45.6576 72.5837L45.039 72.5818L35.8418 72.5626L35.3523 72.5617L35.6124 71.7634H45.5921L45.6576 72.5837Z" fill="#504F60"/>
<path opacity="0.1" d="M40.8734 57.9998L40.8657 58.2799H39.9532L39.9609 57.9568L40.8734 57.9998Z" fill="black"/>
<path d="M41.2223 57.5792H39.6892V58.1509H41.2223V57.5792Z" fill="#504F60"/>
<path opacity="0.1" d="M35.9236 71.7634L35.8417 72.5626L35.3523 72.5617L35.6124 71.7634H35.9236Z" fill="black"/>
<path d="M37.2437 57.5687L37.2177 57.8163L35.1778 77.7818L34.2431 77.7388L36.3928 57.8163L36.4169 57.5897L37.2437 57.5687Z" fill="#504F60"/>
<path opacity="0.1" d="M45.6575 72.5837L45.0389 72.5818L44.955 71.7634H45.592L45.6575 72.5837Z" fill="black"/>
<path d="M46.6366 77.7388L45.701 77.7818L43.6611 57.8163L43.636 57.5687L44.4618 57.5897L44.4859 57.8163L46.6366 77.7388Z" fill="#504F60"/>
<path d="M50.6151 37.8823H30.0034V57.4922H50.6151V37.8823Z" fill="white"/>
<path d="M54.7623 37.8823H25.8804C25.6606 37.8823 25.4825 38.059 25.4825 38.2771V57.0973C25.4825 57.3154 25.6606 57.4922 25.8804 57.4922H54.7623C54.9821 57.4922 55.1603 57.3154 55.1603 57.0973V38.2771C55.1603 38.059 54.9821 37.8823 54.7623 37.8823Z" fill="white"/>
<path d="M40.7106 31.3246V36.06H39.907V31.3246C39.907 31.2188 39.9493 31.1174 40.0247 31.0427C40.1001 30.9679 40.2023 30.9259 40.3088 30.9259C40.4154 30.9259 40.5176 30.9679 40.5929 31.0427C40.6683 31.1174 40.7106 31.2188 40.7106 31.3246Z" fill="#504F60"/>
<path opacity="0.1" d="M40.7116 35.6288H39.907V36.06H40.7116V35.6288Z" fill="black"/>
<path d="M41.0267 35.952V37.5161H39.5919V35.952C39.5919 35.9013 39.6123 35.8526 39.6484 35.8168C39.6845 35.7809 39.7336 35.7608 39.7847 35.7608H40.8282C40.854 35.76 40.8797 35.7644 40.9037 35.7736C40.9278 35.7829 40.9497 35.7969 40.9682 35.8147C40.9867 35.8325 41.0015 35.8539 41.0115 35.8775C41.0215 35.901 41.0267 35.9264 41.0267 35.952Z" fill="#504F60"/>
<path opacity="0.1" d="M40.3088 37.0523C40.477 37.0523 40.6133 36.9171 40.6133 36.7502C40.6133 36.5834 40.477 36.4481 40.3088 36.4481C40.1406 36.4481 40.0043 36.5834 40.0043 36.7502C40.0043 36.9171 40.1406 37.0523 40.3088 37.0523Z" fill="black"/>
<path d="M40.3088 36.9874C40.477 36.9874 40.6133 36.8521 40.6133 36.6853C40.6133 36.5184 40.477 36.3832 40.3088 36.3832C40.1406 36.3832 40.0043 36.5184 40.0043 36.6853C40.0043 36.8521 40.1406 36.9874 40.3088 36.9874Z" fill="#3F3D56"/>
<path opacity="0.1" d="M41.0267 37.322H39.5919V37.5161H41.0267V37.322Z" fill="black"/>
<path opacity="0.1" d="M41.6134 37.5811H39.0041V38.0123H41.6134V37.5811Z" fill="black"/>
<path d="M41.6134 37.451H39.0041V37.8822H41.6134V37.451Z" fill="#504F60"/>
<path opacity="0.1" d="M35.1345 56.9816H45.886C46.0393 56.9816 46.1863 57.0421 46.2948 57.1496C46.4032 57.2572 46.4641 57.4031 46.4641 57.5553H34.5583C34.5583 57.4035 34.6189 57.2578 34.7269 57.1503C34.8349 57.0428 34.9815 56.9821 35.1345 56.9816Z" fill="black"/>
<path opacity="0.1" d="M36.417 57.5897L37.2438 57.5687L37.2178 57.8163H36.3929L36.417 57.5897Z" fill="black"/>
<path opacity="0.1" d="M41.2223 57.5792H39.6892V57.8163H41.2223V57.5792Z" fill="black"/>
<path opacity="0.1" d="M44.4859 57.8163H43.6611L43.636 57.5687L44.4618 57.5897L44.4859 57.8163Z" fill="black"/>
<path d="M35.1345 57.1155H45.886C46.0393 57.1155 46.1863 57.1759 46.2948 57.2835C46.4032 57.3911 46.4641 57.537 46.4641 57.6891H34.5583C34.5583 57.537 34.6192 57.3911 34.7276 57.2835C34.836 57.1759 34.9831 57.1155 35.1364 57.1155H35.1345Z" fill="#504F60"/>
<path d="M49.8953 40.1854C49.9171 40.182 49.9394 40.1837 49.9605 40.1903C49.9816 40.1969 50.0008 40.2082 50.0168 40.2234C50.0327 40.2385 50.0449 40.2571 50.0524 40.2778C50.0599 40.2984 50.0626 40.3204 50.0601 40.3422C49.9203 41.6807 50.01 43.0517 50.1612 44.3873C50.2316 44.9983 50.327 45.6446 50.5997 46.0977C50.6171 46.1252 50.6246 46.1577 50.6211 46.19C50.6176 46.2222 50.6033 46.2524 50.5804 46.2756C50.5043 46.3343 50.4087 46.3627 50.3125 46.3549L46.0121 46.3788C45.9903 46.379 45.9687 46.3742 45.9491 46.3649C45.9294 46.3555 45.9121 46.3419 45.8985 46.3249C45.885 46.308 45.8755 46.2882 45.8708 46.267C45.8661 46.2459 45.8663 46.2239 45.8715 46.2029C46.2174 44.7401 46.1432 43.1435 46.0044 41.6262C45.936 40.8795 45.8965 40.4789 46.4583 40.4263C47.0364 40.3747 47.6145 40.3508 48.1927 40.303C48.3314 40.2915 49.4434 40.259 49.8953 40.1854Z" fill="white" stroke="#33313F" stroke-width="3" stroke-miterlimit="10"/>
<path d="M46.6047 48.9516C46.5829 48.9482 46.5606 48.9499 46.5395 48.9565C46.5184 48.963 46.4992 48.9744 46.4832 48.9895C46.4673 49.0047 46.4551 49.0233 46.4476 49.0439C46.4401 49.0645 46.4375 49.0866 46.4399 49.1084C46.5797 50.4469 46.49 51.8179 46.3378 53.1535C46.2684 53.7644 46.173 54.4107 45.9003 54.8649C45.8829 54.8921 45.8752 54.9245 45.8787 54.9566C45.8822 54.9888 45.8967 55.0188 45.9196 55.0417C45.9958 55.1005 46.0913 55.1288 46.1875 55.1211L50.4879 55.1459C50.5097 55.1458 50.5312 55.1408 50.5507 55.1313C50.5703 55.1217 50.5875 55.108 50.601 55.091C50.6145 55.074 50.624 55.0543 50.6288 55.0331C50.6335 55.012 50.6335 54.9901 50.6286 54.9691C50.2826 53.5063 50.3568 51.9097 50.4956 50.3924C50.564 49.6457 50.6035 49.2451 50.0417 49.1925C49.48 49.1399 48.8855 49.117 48.3073 49.0692C48.1686 49.0577 47.0566 49.0252 46.6047 48.9516Z" fill="white" stroke="#33313F" stroke-width="3" stroke-miterlimit="10"/>
<path d="M47.868 51.4144C48.3677 51.3913 48.8683 51.3974 49.3673 51.4326C49.3996 51.4357 49.4299 51.4497 49.4531 51.4724C49.4762 51.495 49.4909 51.5248 49.4945 51.5569L49.5417 51.9479C49.5441 51.9567 49.5443 51.9659 49.5422 51.9747C49.5402 51.9835 49.5361 51.9917 49.5301 51.9986C49.5195 52.0061 49.5065 52.0096 49.4935 52.0082C49.2834 52.0139 49.0734 51.99 48.8643 52.0082C48.7342 52.0187 48.6051 52.0435 48.4789 52.0579C48.2655 52.0765 48.051 52.0804 47.8371 52.0694C47.5357 52.0745 47.2351 52.0378 46.9439 51.9604C46.9439 51.9604 46.9613 51.6362 46.9613 51.6057C46.9613 51.4546 46.9564 51.4412 47.1135 51.4374L47.868 51.4144Z" stroke="#33313F" stroke-width="2" stroke-miterlimit="10" stroke-linecap="round"/>
<path d="M47.868 53.1774C48.3677 53.2007 48.8683 53.1943 49.3673 53.1583C49.3996 53.1552 49.4299 53.1412 49.4531 53.1185C49.4762 53.0959 49.4909 53.0661 49.4945 53.034L49.5417 52.6439C49.5441 52.635 49.5443 52.6257 49.5422 52.6167C49.5402 52.6077 49.5361 52.5994 49.5301 52.5923C49.5195 52.5847 49.5065 52.5813 49.4935 52.5827C49.2834 52.577 49.0734 52.6019 48.8643 52.5827C48.7342 52.5732 48.6051 52.5483 48.4789 52.534C48.2655 52.5149 48.051 52.511 47.8371 52.5225C47.5357 52.5174 47.2351 52.554 46.9439 52.6315C46.9439 52.6315 46.9613 52.9547 46.9613 52.9862C46.9613 53.1373 46.9564 53.1497 47.1135 53.1545L47.868 53.1774Z" stroke="#33313F" stroke-width="2" stroke-miterlimit="10" stroke-linecap="round"/>
<path d="M47.868 53.8677C48.3677 53.8444 48.8683 53.8508 49.3673 53.8868C49.3996 53.8899 49.4299 53.904 49.4531 53.9266C49.4762 53.9492 49.4909 53.9791 49.4945 54.0111L49.5417 54.4012C49.5441 54.4101 49.5443 54.4194 49.5422 54.4284C49.5402 54.4374 49.5361 54.4458 49.5301 54.4528C49.5195 54.4604 49.5065 54.4638 49.4935 54.4624C49.2834 54.4681 49.0734 54.4433 48.8643 54.4624C48.7342 54.4719 48.6051 54.4978 48.4789 54.5121C48.2655 54.5304 48.051 54.5339 47.8371 54.5226C47.5358 54.5281 47.2351 54.4917 46.9439 54.4146C46.9439 54.4146 46.9613 54.0905 46.9613 54.0589C46.9613 53.9079 46.9564 53.8954 47.1135 53.8916L47.868 53.8677Z" stroke="#33313F" stroke-width="2" stroke-miterlimit="10" stroke-linecap="round"/>
<path d="M48.501 45.6848C48.5451 45.7898 48.5597 45.9048 48.5434 46.0175C48.5436 46.0265 48.5412 46.0354 48.5367 46.0433C48.5313 46.0484 48.525 46.0523 48.518 46.0548C48.511 46.0573 48.5036 46.0582 48.4962 46.0576L47.5808 46.093C47.5808 46.093 47.6319 45.8253 47.6386 45.8062C47.6704 45.6972 47.7504 45.7259 47.8535 45.7201L48.501 45.6848Z" fill="white" stroke="#33313F" stroke-width="2" stroke-miterlimit="10" stroke-linecap="round"/>
<path d="M49.8838 45.6848C49.9275 45.7899 49.9418 45.9049 49.9252 46.0175C49.9257 46.0264 49.9237 46.0354 49.9194 46.0433C49.914 46.0483 49.9077 46.0522 49.9007 46.0546C49.8937 46.0571 49.8863 46.0581 49.879 46.0576L48.9626 46.093C48.9626 46.093 49.0146 45.8253 49.0214 45.8062C49.0522 45.6972 49.1322 45.7259 49.2362 45.7201L49.8838 45.6848Z" fill="white" stroke="#33313F" stroke-width="2" stroke-miterlimit="10" stroke-linecap="round"/>
<path d="M49.3316 41.1204L49.4549 42.1721C49.4591 42.2101 49.4555 42.2485 49.4444 42.2852C49.4334 42.3218 49.415 42.3558 49.3905 42.3853C49.366 42.4148 49.3358 42.4391 49.3017 42.4568C49.2676 42.4746 49.2303 42.4854 49.1919 42.4886C48.4098 42.5499 47.6239 42.5448 46.8427 42.4733C46.7733 42.4667 46.7086 42.4353 46.6606 42.3851C46.6126 42.3348 46.5845 42.269 46.5816 42.1998C46.5669 42.0124 46.5393 41.8261 46.4987 41.6425C46.4669 41.4512 46.4322 41.2667 46.6596 41.2103C46.887 41.1539 47.1983 41.1941 47.4469 41.1893C47.7449 41.1835 48.042 41.1753 48.3382 41.1644C48.421 41.1644 49.3316 41.1157 49.3316 41.1204Z" stroke="#33313F" stroke-width="3" stroke-miterlimit="10"/>
<path d="M49.3315 44.9199L49.4529 43.8682C49.4571 43.8302 49.4535 43.7918 49.4424 43.7552C49.4314 43.7186 49.413 43.6846 49.3885 43.6551C49.364 43.6256 49.3338 43.6013 49.2997 43.5835C49.2656 43.5658 49.2283 43.555 49.1899 43.5518C48.4078 43.4906 47.622 43.4954 46.8407 43.5661C46.7711 43.5728 46.7063 43.6042 46.6583 43.6547C46.6103 43.7052 46.5823 43.7712 46.5796 43.8405C46.565 44.028 46.5373 44.2142 46.4967 44.3979C46.4649 44.5891 46.4303 44.7736 46.6577 44.83C46.8851 44.8864 47.1963 44.8463 47.4449 44.8511C47.7426 44.8568 48.0394 44.8645 48.3362 44.8759C48.421 44.8788 49.3315 44.9276 49.3315 44.9199Z" stroke="#33313F" stroke-width="3" stroke-miterlimit="10"/>
<path d="M48.0935 49.6591C48.0614 50.0091 48.0411 50.3596 48.0328 50.7108C47.6791 50.7079 47.3267 50.6678 46.9815 50.5913C46.9543 50.59 46.9278 50.5828 46.9037 50.5703C46.8796 50.5577 46.8586 50.54 46.8421 50.5185C46.8257 50.497 46.8142 50.4721 46.8085 50.4457C46.8028 50.4193 46.803 50.392 46.8091 50.3657C46.8023 50.1477 46.6867 49.661 46.996 49.6305C47.0885 49.6209 48.0925 49.6763 48.0935 49.6591Z" stroke="#33313F" stroke-width="2" stroke-miterlimit="10" stroke-linecap="round"/>
<path d="M31.0798 44.8826C31.1251 44.8777 31.171 44.8829 31.214 44.8978C31.2571 44.9126 31.2962 44.9368 31.3287 44.9686C31.3612 45.0003 31.3861 45.0389 31.4017 45.0814C31.4173 45.1239 31.4232 45.1693 31.4189 45.2143C31.3081 46.4869 31.3958 47.79 31.5404 49.0587C31.6049 49.6228 31.6907 50.2165 31.9181 50.6611C31.9379 50.6992 31.9475 50.7417 31.946 50.7846C31.9444 50.8274 31.9319 50.8692 31.9094 50.9058C31.887 50.9425 31.8555 50.9728 31.8178 50.9939C31.7802 51.015 31.7377 51.0261 31.6945 51.0263L27.4279 51.0511C27.4024 51.0513 27.3772 51.0458 27.3542 51.0349C27.3312 51.0241 27.3109 51.0083 27.2949 50.9886C27.2789 50.969 27.2675 50.946 27.2617 50.9214C27.2558 50.8968 27.2557 50.8712 27.2612 50.8465C27.5994 49.3914 27.5252 47.8024 27.3874 46.2976C27.318 45.5509 27.2795 45.1503 27.8403 45.0977C28.4184 45.047 28.9965 45.0231 29.5699 44.9744C29.6922 44.9648 30.5672 44.938 31.0798 44.8826Z" fill="white" stroke="#33313F" stroke-width="3" stroke-miterlimit="10" stroke-linecap="round"/>
<path d="M37.0153 44.8587C36.9919 44.8551 36.9681 44.857 36.9456 44.8641C36.9231 44.8712 36.9025 44.8834 36.8855 44.8997C36.8686 44.916 36.8556 44.9359 36.8477 44.958C36.8398 44.9801 36.8371 45.0037 36.8399 45.027C36.9777 46.3588 36.8881 47.7279 36.7368 49.0587C36.6674 49.6696 36.5721 50.3131 36.3003 50.7672C36.2813 50.7993 36.2749 50.8373 36.2823 50.8739C36.2898 50.9104 36.3106 50.9429 36.3408 50.9651C36.4137 51.0109 36.4995 51.0324 36.5855 51.0263L40.8744 51.0512C40.8979 51.0512 40.9211 51.0458 40.9423 51.0356C40.9634 51.0253 40.9819 51.0103 40.9963 50.9919C41.0107 50.9734 41.0207 50.9519 41.0254 50.9291C41.0302 50.9062 41.0296 50.8826 41.0237 50.8599C40.6817 49.4 40.7549 47.8053 40.8936 46.2947C40.962 45.548 41.0016 45.1474 40.4408 45.0948C39.8626 45.0442 39.2845 45.0203 38.7063 44.9715C38.5647 44.9629 37.4759 44.9314 37.0153 44.8587Z" fill="white" stroke="#33313F" stroke-width="3" stroke-miterlimit="10"/>
<path d="M28.5254 45.7278L30.7069 48.6151" stroke="#33313F" stroke-width="2" stroke-miterlimit="10" stroke-linecap="round"/>
<path d="M30.7068 45.5117L28.5976 48.7594" stroke="#33313F" stroke-width="2" stroke-miterlimit="10" stroke-linecap="round"/>
<path d="M38.2603 45.8635L39.4484 47.4363" stroke="#33313F" stroke-width="2" stroke-miterlimit="10" stroke-linecap="round"/>
<path d="M39.4483 45.745L38.2997 47.5147" stroke="#33313F" stroke-width="2" stroke-miterlimit="10" stroke-linecap="round"/>
<path d="M29.2461 49.5377C29.7461 49.5145 30.2471 49.5206 30.7464 49.5558C30.7786 49.5593 30.8087 49.5734 30.8318 49.596C30.8549 49.6185 30.8696 49.6482 30.8736 49.6801L30.9198 50.0712C30.9221 50.08 30.9223 50.0892 30.9205 50.0982C30.9187 50.1071 30.9148 50.1155 30.9092 50.1228C30.8982 50.1294 30.8855 50.1327 30.8726 50.1323C30.6625 50.1381 30.4515 50.1132 30.2424 50.1323C30.1123 50.1419 29.9842 50.1668 29.857 50.1811C29.6436 50.1998 29.4292 50.2036 29.2153 50.1926C28.9142 50.1978 28.6138 50.1611 28.323 50.0836C28.3172 50.0836 28.3404 49.7604 28.3404 49.7289C28.3404 49.5778 28.3346 49.5654 28.4916 49.5606L29.2461 49.5377Z" stroke="#33313F" stroke-width="2" stroke-miterlimit="10" stroke-linecap="round"/>
<path d="M38.4116 48.094C38.9116 48.0707 39.4126 48.0771 39.9119 48.1131C39.9442 48.1162 39.9745 48.1303 39.9977 48.1529C40.0208 48.1755 40.0355 48.2054 40.0391 48.2374L40.0853 48.6275C40.0876 48.6364 40.0878 48.6456 40.086 48.6545C40.0842 48.6635 40.0803 48.6719 40.0747 48.6791C40.0641 48.6866 40.0511 48.69 40.0381 48.6887C39.828 48.6944 39.617 48.6696 39.4079 48.6887C39.2778 48.6983 39.1497 48.7241 39.0225 48.7375C38.8091 48.7566 38.5947 48.7604 38.3808 48.7489C38.0794 48.7541 37.7787 48.7174 37.4875 48.6399C37.4827 48.6399 37.5049 48.3168 37.5049 48.2852C37.5049 48.1342 37.5001 48.1217 37.6571 48.117L38.4116 48.094Z" stroke="#33313F" stroke-width="2" stroke-miterlimit="10" stroke-linecap="round"/>
<path d="M39.1756 49.1773C38.6759 49.1541 38.1752 49.1602 37.6763 49.1954C37.6439 49.1985 37.6136 49.2125 37.5904 49.2352C37.5673 49.2578 37.5527 49.2877 37.5491 49.3197L37.5047 49.7098C37.502 49.7186 37.5015 49.7279 37.5033 49.7369C37.5052 49.746 37.5093 49.7544 37.5153 49.7614C37.5259 49.7689 37.539 49.7723 37.552 49.771C37.762 49.7767 37.9721 49.7528 38.1821 49.771C38.3122 49.7805 38.4404 49.8063 38.5676 49.8207C38.781 49.8388 38.9954 49.8427 39.2093 49.8321C39.5107 49.8374 39.8114 49.8007 40.1025 49.7231C40.1073 49.7231 40.0852 49.3991 40.0852 49.3685C40.0852 49.2164 40.091 49.204 39.9339 49.2002L39.1756 49.1773Z" stroke="#33313F" stroke-width="2" stroke-miterlimit="10" stroke-linecap="round"/>
<path d="M32.9404 48.4697C32.9404 48.4697 34.3578 48.398 34.6122 48.4697" stroke="#33313F" stroke-width="3" stroke-miterlimit="10"/>
<path d="M34.6141 47.7125C34.6141 47.7125 35.2318 48.3254 35.2318 48.4697C35.2318 48.6141 34.432 49.1189 34.432 49.1189" stroke="#33313F" stroke-width="3" stroke-miterlimit="10"/>
<path d="M42.2109 47.1618C42.2109 47.1618 43.4953 46.5652 43.7584 46.5366" stroke="#33313F" stroke-width="3" stroke-miterlimit="10"/>
<path d="M43.4713 45.8358C43.4713 45.8358 44.2759 46.1724 44.3308 46.3052C44.3857 46.4381 43.8375 47.2059 43.8375 47.2059" stroke="#33313F" stroke-width="3" stroke-miterlimit="10"/>
<path d="M42.1974 48.6896C42.1974 48.6896 43.503 49.2394 43.7006 49.4153" stroke="#33313F" stroke-width="3" stroke-miterlimit="10"/>
<path d="M44.034 48.7336C44.034 48.7336 44.3231 49.553 44.2556 49.683C44.1882 49.8131 43.2506 49.9201 43.2506 49.9201" stroke="#33313F" stroke-width="3" stroke-miterlimit="10"/>
<path d="M47.2647 45.6848C47.3085 45.7899 47.3228 45.9049 47.3061 46.0175C47.3067 46.0264 47.3047 46.0354 47.3004 46.0433C47.295 46.0483 47.2886 46.0522 47.2816 46.0546C47.2747 46.0571 47.2673 46.0581 47.2599 46.0576L46.3435 46.093C46.3435 46.093 46.3956 45.8253 46.4023 45.8062C46.4332 45.6972 46.5141 45.7259 46.6172 45.7201L47.2647 45.6848Z" fill="white" stroke="#33313F" stroke-width="2" stroke-miterlimit="10" stroke-linecap="round"/>
<path d="M29.9543 53.9241L30.2781 53.6249L29.989 53.6134L29.8377 53.8438L29.9543 53.9241Z" fill="#33313F"/>
<path d="M27.6255 56.0198L27.9685 55.5829L28.0446 55.5045L29.0949 54.4127L29.4524 54.0417L29.62 54.0216L29.8609 53.7845L30.0026 53.9079L29.7684 54.1794L29.7723 54.3219L29.4071 54.7148L28.3761 55.8257L28.3096 55.8965L27.8953 56.277L27.6255 56.0198Z" fill="#65617D"/>
<path d="M28.0446 55.5045L29.0948 54.4127L29.407 54.7148L28.376 55.8257L28.0446 55.5045Z" fill="#33313F"/>
<path d="M29.6296 55.9252C29.3243 55.6433 29.0589 55.3217 28.8405 54.9691C28.3779 54.254 27.6052 53.8677 27.0752 53.6756V53.4433L27.108 53.4366L27.0935 53.2205H27.108L27.0704 52.6468V52.6421L26.8796 49.7959C26.8796 49.7959 26.2003 47.8981 27.4076 46.1475C28.615 44.3969 27.4828 42.7181 26.3477 42.0613C26.3477 42.0613 25.8197 39.2887 26.2726 38.6318C25.6582 38.281 25.0252 37.9634 24.3763 37.6806C24.3657 37.6461 24.357 37.6117 24.3483 37.5754C24.3358 37.3173 24.3194 37.0591 24.305 36.801C24.3201 36.6668 24.3448 36.5339 24.3792 36.4033C24.3936 36.3488 24.41 36.2943 24.4273 36.2379C24.9669 36.0333 25.4318 35.6719 25.761 35.2009C26.0902 34.7299 26.2685 34.1713 26.2726 33.5981C26.2728 33.2638 26.2121 32.9321 26.0933 32.6191C26.1543 32.5197 26.2006 32.4122 26.2311 32.2998C26.3034 32.0044 26.2215 31.6889 26.0519 31.3896C25.7493 30.7414 24.9949 30.1343 24.4476 29.9096C23.6632 29.5941 22.4829 29.6687 21.6658 29.7662C21.2071 29.8207 20.6839 29.9727 20.5181 30.3896C20.4574 30.5426 20.4565 30.7118 20.4141 30.8676C20.2426 31.5044 19.5016 31.8007 19.0439 32.2883C18.6392 32.7186 18.4658 33.3008 18.3309 33.8678C17.9551 35.4926 17.8655 37.1698 18.0659 38.825C18.1121 39.2074 18.1738 39.585 18.2393 39.9636C17.9637 40.3461 17.7151 41.022 17.8288 42.1961L16.9231 46.4276L16.5463 48.9086C16.5463 48.9086 16.3199 49.9297 17.2208 50.8055C17.799 51.3638 18.4976 52.3074 18.9283 52.9184C18.7407 53.4593 18.6478 54.0281 18.6537 54.6001C18.6633 54.8601 18.6777 55.1116 18.696 55.3506C18.7342 55.8584 18.8312 56.3601 18.9851 56.8459C19.0911 57.8651 19.3002 59.1682 19.7097 60.0009L19.86 64.4514C19.86 64.4514 19.6336 68.5376 19.1855 69.3398C18.7375 70.1419 20.1655 76.9281 20.1655 76.9281V77.8765L19.9246 78.5783L19.8639 78.5333C18.7327 79.9196 19.8639 80.4302 19.8639 80.4302C19.8639 80.4302 20.1722 80.4445 20.6646 80.4636C20.6228 80.6581 20.6475 80.8609 20.7347 81.0399C20.822 81.2189 20.9668 81.364 21.1464 81.4522C21.1464 81.4522 27.557 81.7438 28.6892 81.4522C29.8214 81.1606 29.5188 80.1386 28.9146 80.2093C28.6844 80.238 28.3442 80.1778 28.0118 80.0927C28.3635 79.6864 28.0821 79.1366 27.6331 79.1882C27.0299 79.2609 25.6723 78.7313 25.6723 78.7313L25.6655 78.7398C25.6222 78.7235 25.5777 78.71 25.5325 78.6997C25.0282 78.5872 24.53 78.449 24.04 78.2857C23.7509 77.671 23.0764 76.0189 23.5582 74.7378C23.776 74.1584 23.8473 73.3878 23.8473 72.6401C23.8588 70.3847 24.1933 68.1423 24.8407 65.9802L25.7455 62.9208C25.7455 62.9208 27.028 59.1988 27.1031 58.1777L27.0983 56.692C28.1583 57.3612 29.0014 57.1604 29.539 56.8478C29.6175 56.8019 29.6839 56.7383 29.7328 56.6621C29.7818 56.5859 29.8119 56.4993 29.8207 56.4093C29.8295 56.3194 29.8168 56.2287 29.7836 56.1446C29.7504 56.0604 29.6976 55.9853 29.6296 55.9252ZM19.5633 48.1811C19.5893 48.074 19.6105 47.9573 19.6288 47.834C19.8061 47.834 19.9843 47.834 20.1616 47.8283C20.3822 48.2728 20.4748 48.769 20.4295 49.2624C20.0209 49.1371 19.41 48.8302 19.5633 48.1858V48.1811Z" fill="url(#paint0_linear)"/>
<path d="M20.2802 77.5218L19.9911 78.3823L20.9344 79.3182L24.0554 80.0382L26.3053 79.8221L26.1598 79.0295C26.1166 78.8594 26.027 78.7045 25.9009 78.5815C25.7748 78.4586 25.617 78.3725 25.4449 78.3325C24.5198 78.1165 22.7565 77.6251 22.3855 76.9415L20.2802 77.5218Z" fill="#DB8B8B"/>
<path opacity="0.1" d="M20.2802 77.5218L19.9911 78.3823L20.9344 79.3182L24.0554 80.0382L26.3053 79.8221L26.1598 79.0295C26.1166 78.8594 26.027 78.7045 25.9009 78.5815C25.7748 78.4586 25.617 78.3725 25.4449 78.3325C24.5198 78.1165 22.7565 77.6251 22.3855 76.9415L20.2802 77.5218Z" fill="black"/>
<path d="M25.5788 79.606L25.1433 79.0323L25.5788 78.3631C25.5788 78.3631 26.8844 78.8861 27.4655 78.8144C28.0465 78.7427 28.3327 79.7503 27.2477 80.0381C26.1627 80.3259 19.9901 80.0381 19.9901 80.0381C19.9901 80.0381 18.9013 79.5343 19.9901 78.1661L20.9334 78.8861C20.9334 78.8861 22.5301 79.7465 23.3289 79.606H25.5788Z" fill="#2E3037"/>
<path d="M27.5377 80.8308L25.2878 81.0468L22.1668 80.326L21.2206 79.39L21.2976 79.1615L21.4056 78.8402L21.5115 78.5257L23.616 77.952C23.7228 78.1245 23.869 78.2696 24.0428 78.3756C24.726 78.8393 25.9545 79.1748 26.6753 79.3422C26.7052 79.3498 26.736 79.3584 26.7649 79.3689C26.9174 79.4193 27.0547 79.507 27.164 79.624C27.2733 79.741 27.3511 79.8834 27.3902 80.0382L27.5377 80.8308Z" fill="#DB8B8B"/>
<path opacity="0.1" d="M27.5377 80.8307L25.2878 81.0468L22.1668 80.3259L21.2206 79.3899L21.2976 79.1614L22.1648 79.8221C22.1648 79.8221 23.7624 80.6825 24.5603 80.542H26.8092L26.3737 79.9684L26.7649 79.3689C26.9174 79.4193 27.0547 79.507 27.164 79.624C27.2733 79.741 27.3511 79.8834 27.3902 80.0381L27.5377 80.8307Z" fill="black"/>
<path d="M26.8093 80.6146L26.3738 80.041L26.8093 79.3718C26.8093 79.3718 28.1159 79.8947 28.696 79.823C29.276 79.7513 29.5632 80.759 28.4791 81.0478C27.3951 81.3365 21.2206 81.0478 21.2206 81.0478C21.2206 81.0478 20.1318 80.5429 21.2206 79.1748L22.1639 79.8947C22.1639 79.8947 23.7615 80.7552 24.5594 80.6156L26.8093 80.6146Z" fill="#2E3037"/>
<path d="M24.9977 38.847C24.9977 38.847 21.5144 39.2064 22.0222 37.7666C22.1646 37.3583 22.2013 36.9211 22.1292 36.495C22.039 35.9668 21.8287 35.4659 21.5144 35.0303L24.78 35.5342C24.5843 35.8587 24.4354 36.2088 24.3377 36.5744C23.9484 38.1031 24.9977 38.847 24.9977 38.847Z" fill="#DB8B8B"/>
<path d="M19.0468 55.2655C19.0468 55.2655 19.119 58.3622 19.8446 59.8747L19.9901 64.2669C19.9901 64.2669 19.7723 68.3005 19.3368 69.0921C18.9013 69.8838 20.2801 76.582 20.2801 76.582V77.734C20.2801 77.734 22.6023 78.5945 23.2556 77.5897L22.6023 69.0204L22.8914 57.1384L19.0468 55.2655Z" fill="#35323E"/>
<path opacity="0.1" d="M19.0458 55.2655C19.0458 55.2655 19.1181 58.3622 19.8436 59.8747L19.9891 64.2669C19.9891 64.2669 19.7714 68.3005 19.3358 69.0921C18.9003 69.8838 20.2792 76.582 20.2792 76.582V77.734C20.2792 77.734 22.6014 78.5945 23.2547 77.5897L22.6014 69.0204L22.8904 57.1384L19.0458 55.2655Z" fill="black"/>
<path d="M17.5947 45.3281L17.1591 46.4802L16.7968 48.9287C16.7478 49.2698 16.7815 49.6176 16.8951 49.9431C17.0087 50.2687 17.199 50.5627 17.4501 50.8007C18.3174 51.6611 19.4823 53.4652 19.4823 53.4652L20.8612 49.3608C20.8612 49.3608 19.4823 49.1448 19.7049 48.2088C19.9275 47.2728 19.8494 45.5442 19.8494 45.5442L17.5947 45.3281Z" fill="#BE6F72"/>
<path opacity="0.1" d="M24.0457 78.3736C23.114 79.8278 21.6657 79.0037 21.4084 78.8402L21.5144 78.5257L23.6189 77.952C23.7259 78.1238 23.8721 78.2682 24.0457 78.3736Z" fill="black"/>
<path d="M26.9576 58.0744C26.8844 59.0821 25.651 62.7592 25.651 62.7592L24.7838 65.7813C24.1584 67.9166 23.8347 70.1278 23.8222 72.3514C23.8222 73.0885 23.7537 73.8495 23.5446 74.4213C22.9665 76.0055 24.1228 78.1662 24.1228 78.1662C23.1072 79.9665 21.3651 78.7398 21.3651 78.7398V77.5925C21.3651 77.5925 19.9901 71.3246 20.3533 70.1008C20.7166 68.877 20.8621 65.5633 20.8621 65.5633V59.5869C19.6986 58.437 18.9916 56.9096 18.8704 55.2846C18.8531 55.0485 18.8386 54.8009 18.8299 54.5437C18.7712 52.9184 19.8898 51.0139 20.3273 50.337C20.4333 50.1725 20.4988 50.0807 20.4988 50.0807L26.9056 52.6029L26.92 52.6086V52.8543V53.3993L26.9576 58.0744Z" fill="#35323E"/>
<path opacity="0.1" d="M24.78 35.5342C24.5843 35.8587 24.4354 36.2088 24.3377 36.5744C23.983 36.7086 23.6047 36.7707 23.2253 36.757C22.8459 36.7434 22.4732 36.6543 22.1292 36.495C22.039 35.9668 21.8287 35.4659 21.5144 35.0303L24.78 35.5342Z" fill="black"/>
<path d="M23.3289 36.6145C24.8924 36.6145 26.1598 35.3569 26.1598 33.8056C26.1598 32.2542 24.8924 30.9966 23.3289 30.9966C21.7654 30.9966 20.4979 32.2542 20.4979 33.8056C20.4979 35.3569 21.7654 36.6145 23.3289 36.6145Z" fill="#DB8B8B"/>
<path opacity="0.1" d="M26.9576 53.3935L26.9258 53.3993C23.8829 54.0198 20.0643 50.8733 20.0643 50.8733C20.167 50.702 20.2553 50.5226 20.3283 50.337C20.4343 50.1725 20.4998 50.0807 20.4998 50.0807L26.9056 52.6029L26.922 52.8543L26.9576 53.3935Z" fill="black"/>
<path d="M26.1589 38.7753C26.1589 38.7753 22.0945 36.3268 20.788 37.3345L18.9736 39.6386C18.9736 39.6386 17.8125 39.999 18.0302 42.3032L17.163 46.4802L19.7752 47.1284C19.7752 47.1284 21.2996 48.5683 20.0643 50.6573C20.0643 50.6573 23.9109 53.8257 26.9596 53.1775L26.7399 49.7959C26.7399 49.7959 26.0866 47.9229 27.2477 46.1953C28.4088 44.4677 27.32 42.8108 26.2321 42.1626C26.2311 42.1597 25.7233 39.4225 26.1589 38.7753Z" fill="#BE6F72"/>
<path d="M26.3766 53.4652C26.3766 53.4652 27.9009 53.752 28.6265 54.906C28.836 55.2525 29.0917 55.5693 29.3868 55.8477C29.4523 55.9079 29.5029 55.9823 29.5346 56.0652C29.5663 56.148 29.5782 56.237 29.5695 56.3252C29.5607 56.4133 29.5315 56.4983 29.484 56.5734C29.4366 56.6485 29.3723 56.7116 29.2962 56.7579C28.718 57.1021 27.7815 57.3134 26.5982 56.3459C24.5622 54.6899 26.3766 53.4652 26.3766 53.4652Z" fill="#DB8B8B"/>
<path opacity="0.1" d="M24.1267 40.1396C24.1267 40.1396 22.6755 39.9952 22.3123 43.7401C21.949 47.485 21.369 48.3483 21.369 48.3483C21.369 48.3483 21.0057 50.293 21.8767 51.445C22.7478 52.5971 24.4167 55.0542 24.4167 55.0542C24.4167 55.0542 26.2321 55.559 26.5944 53.7578L24.3444 49.5817C24.3444 49.5817 23.9821 48.1409 24.8522 47.1332C25.7223 46.1255 26.3766 39.4225 24.1267 40.1396Z" fill="black"/>
<path d="M24.2722 39.9273C24.2722 39.9273 22.8201 39.783 22.4578 43.5279C22.0955 47.2728 21.5144 48.1361 21.5144 48.1361C21.5144 48.1361 21.1512 50.0827 22.0222 51.23C22.8933 52.3772 24.5622 54.8305 24.5622 54.8305C24.5622 54.8305 26.3766 55.3353 26.7398 53.535L24.4899 49.358C24.4899 49.358 24.1267 47.9172 24.9977 46.9095C25.8688 45.9018 26.5201 39.2065 24.2722 39.9273Z" fill="#BE6F72"/>
<path opacity="0.1" d="M25.4699 42.6253C25.4699 42.6253 25.6145 44.8577 24.9612 46.0824C24.3079 47.3072 24.3079 48.8904 24.9612 49.7547" fill="black"/>
<path opacity="0.1" d="M25.8322 39.891C25.8322 39.891 25.254 39.3173 23.5822 39.2428C21.9104 39.1682 21.1878 38.6691 21.1878 38.6691" fill="black"/>
<path opacity="0.1" d="M21.7987 30.1764C21.3574 30.2299 20.8535 30.38 20.6945 30.7921C20.6357 30.9431 20.6347 31.1095 20.5933 31.2701C20.4285 31.8992 19.7155 32.1917 19.2752 32.6726C18.8897 33.0971 18.7153 33.6717 18.5891 34.231C18.2267 35.8348 18.1391 37.4877 18.3299 39.1204C18.4715 40.3145 18.7606 41.4895 18.8425 42.6894C18.9244 43.8892 18.7751 45.1512 18.1141 46.1589C17.825 46.593 17.455 46.9735 17.2536 47.4506C17.6699 47.7852 18.2441 47.833 18.7799 47.8512C19.4043 47.8722 20.0287 47.8722 20.6531 47.8512C20.9807 47.8397 21.3227 47.8187 21.6051 47.6542C21.8142 47.5216 21.9862 47.3388 22.1052 47.1226C22.4617 46.5213 22.5522 45.7985 22.5368 45.1006C22.5214 44.4026 22.4106 43.7095 22.3971 43.0116C22.3904 42.6291 22.4202 42.2276 22.6409 41.9159C22.7999 41.6912 23.0417 41.5402 23.2489 41.3576C24.0265 40.6749 24.2924 39.5793 24.3185 38.5496C24.3445 37.5199 24.1739 36.4883 24.2616 35.4624C24.2953 35.0599 24.4466 34.5781 24.8455 34.4997C24.9708 34.4748 25.1047 34.4997 25.2242 34.4519C25.5441 34.3305 25.5133 33.883 25.6039 33.5561C25.707 33.188 26.023 32.904 26.1117 32.5331C26.3207 31.6621 25.203 30.6209 24.4736 30.3188C23.7172 30.0052 22.5812 30.0807 21.7987 30.1764Z" fill="black"/>
<path d="M21.7226 30.033C21.2813 30.0865 20.7774 30.2366 20.6184 30.6477C20.5774 30.8052 20.5452 30.9648 20.522 31.1257C20.3572 31.7548 19.6432 32.0474 19.2029 32.5292C18.8175 32.9528 18.6431 33.5274 18.5168 34.0876C18.1561 35.6927 18.0701 37.3465 18.2625 38.9798C18.4041 40.174 18.6932 41.3499 18.7741 42.5488C18.8551 43.7477 18.7076 45.0107 18.0466 46.0184C17.7576 46.4525 17.3875 46.833 17.1862 47.3101C17.6024 47.6456 18.1767 47.6925 18.7124 47.7106C19.3368 47.7317 19.9612 47.7317 20.5856 47.7106C20.9132 47.6992 21.2553 47.6791 21.5376 47.5137C21.7469 47.3815 21.9187 47.1986 22.0367 46.9821C22.3942 46.3808 22.4838 45.658 22.4694 44.96C22.4549 44.2621 22.3422 43.569 22.3297 42.871C22.3229 42.4886 22.3528 42.0871 22.5725 41.7763C22.7324 41.5507 22.9743 41.3996 23.1815 41.218C23.9581 40.5344 24.225 39.4387 24.251 38.4091C24.277 37.3794 24.1055 36.3478 24.1932 35.3219C24.2279 34.9204 24.3792 34.4376 24.7771 34.3601C24.9033 34.3353 25.0373 34.3601 25.1568 34.3114C25.4767 34.1899 25.4458 33.7435 25.5364 33.4155C25.6385 33.0474 25.9546 32.7644 26.0442 32.3935C26.2533 31.5216 25.1356 30.4814 24.4061 30.1783C23.644 29.8628 22.5089 29.9364 21.7226 30.033Z" fill="#35323E"/>
</g>
<defs>
<linearGradient id="paint0_linear" x1="23.1728" y1="81.5861" x2="23.1728" y2="29.6859" gradientUnits="userSpaceOnUse">
<stop stop-color="#808080" stop-opacity="0.25"/>
<stop offset="0.54" stop-color="#808080" stop-opacity="0.12"/>
<stop offset="1" stop-color="#808080" stop-opacity="0.1"/>
</linearGradient>
<clipPath id="clip0">
<rect width="107" height="82" fill="white"/>
</clipPath>
</defs>
</svg>
