<svg width="32" height="32" viewBox="0 0 32 32" fill="none" xmlns="http://www.w3.org/2000/svg">
<path d="M0.00626101 6C3.56877 6 7.13129 6 10.6938 6C11.1822 6.08509 11.6768 6.14586 12.1589 6.25526C13.6866 6.60169 14.9325 7.33708 15.6713 8.72886C16.2661 9.84715 16.36 11.0384 16.1471 12.26C15.9781 13.2445 15.521 14.0711 14.6946 14.6789C14.4128 14.8855 14.0998 15.0678 13.7742 15.2745C13.9307 15.3474 14.0622 15.4021 14.1937 15.4629C15.3457 15.9795 16.1471 16.806 16.5666 17.973C16.9673 19.0912 17.0112 20.2278 16.7357 21.3643C16.2724 23.2605 15.1391 24.6462 13.2671 25.4059C12.0399 25.9043 10.7251 25.9894 9.41029 25.9954C6.37996 26.0015 3.34964 26.0015 0.319311 25.9954C0.219135 25.9954 0.118959 25.9894 0 25.9833C0.00626101 19.304 0.00626101 12.6489 0.00626101 6ZM4.77715 17.2011C4.77715 18.9818 4.77715 20.72 4.77715 22.4704C4.82723 22.4826 4.87106 22.4947 4.90863 22.4947C6.55527 22.4886 8.19566 22.5069 9.83604 22.4643C10.5999 22.4461 11.3324 22.2395 11.8834 21.6499C12.4093 21.0908 12.5345 20.404 12.5471 19.6868C12.5721 18.4592 11.9272 17.6751 10.7063 17.3591C9.87987 17.1464 9.03463 17.2011 8.19566 17.195C7.06868 17.2011 5.93543 17.2011 4.77715 17.2011ZM4.77089 13.8766C5.42203 13.8766 6.04187 13.8827 6.66797 13.8766C7.75112 13.8645 8.84054 13.9131 9.91117 13.8037C11.4263 13.6396 12.0337 13.0501 12.1276 11.8467C12.2027 10.856 11.8333 9.88969 10.5874 9.68305C10.1679 9.61012 9.74839 9.52503 9.32264 9.51895C7.89513 9.49464 6.47388 9.49464 5.04637 9.48857C4.95872 9.48857 4.87106 9.5068 4.77715 9.51288C4.77089 10.9715 4.77089 12.3998 4.77089 13.8766Z" fill="#8F3F4E"/>
<path d="M20.4985 8.82612C23.2847 8.82612 26.027 8.82612 28.7818 8.82612C28.7818 8.15758 28.7818 7.50727 28.7818 6.85696C26.0082 6.85696 23.2596 6.85696 20.4985 6.85696C20.4985 7.51943 20.4985 8.16366 20.4985 8.82612Z" fill="white"/>
<path d="M32 19.2675C28.4312 19.2675 24.8624 19.2675 21.2874 19.2675C21.2624 21.1394 22.2892 22.4157 23.9859 22.7074C24.5494 22.8047 25.1442 22.7804 25.7139 22.7135C26.5779 22.6102 27.2416 22.1604 27.6736 21.419C27.7863 21.2306 27.9178 21.1576 28.1432 21.1576C29.2451 21.1698 30.3533 21.1637 31.4553 21.1637C31.5554 21.1637 31.6556 21.1637 31.7808 21.1637C31.7057 21.972 31.3113 22.6102 30.848 23.2058C29.3829 25.0899 27.3543 25.8253 25.0002 25.8617C22.7963 25.8982 20.8491 25.2418 19.2275 23.7649C18.3259 22.9384 17.8438 21.8869 17.5997 20.7322C17.224 18.9454 17.2177 17.1585 17.7562 15.4082C18.5138 12.9528 20.2168 11.4395 22.7775 10.8682C24.5682 10.4731 26.34 10.6129 28.0368 11.3058C29.4705 11.8892 30.4723 12.9346 31.161 14.2656C31.6243 15.159 31.8685 16.1132 31.9311 17.1099C31.9374 17.1889 31.9687 17.2619 31.9875 17.3409C32 17.979 32 18.6232 32 19.2675ZM21.3876 16.7696C23.5789 16.7696 25.764 16.7696 27.9491 16.7696C27.8865 14.8186 26.4527 13.7672 24.6245 13.7672C22.477 13.7672 21.5629 15.2198 21.3876 16.7696Z" fill="#8F3F4E"/>
<path d="M20.4985 8.82612C20.4985 8.16366 20.4985 7.5255 20.4985 6.85696C23.2534 6.85696 26.0082 6.85696 28.7818 6.85696C28.7818 7.50727 28.7818 8.15758 28.7818 8.82612C26.027 8.82612 23.2847 8.82612 20.4985 8.82612Z" fill="#8F3F4E"/>
</svg>
