<svg width="56" height="55" viewBox="0 0 56 55" fill="none" xmlns="http://www.w3.org/2000/svg">
<path d="M6.11306 55H48.8908C52.2659 55 55.002 52.264 55.002 48.8889V6.11111C55.002 2.73604 52.2659 0 48.8908 0H6.11306C2.73799 0 0.00195312 2.73604 0.00195312 6.11111V48.8889C0.00195313 52.264 2.73799 55 6.11306 55Z" fill="#8F3F4E"/>
<path fill-rule="evenodd" clip-rule="evenodd" d="M27.502 9C32.5263 9 33.1563 9.0213 35.1295 9.11133C37.0986 9.20114 38.4434 9.5139 39.6202 9.97126C40.8367 10.444 41.8684 11.0765 42.8969 12.105C43.9254 13.1336 44.558 14.1653 45.0308 15.3818C45.4881 16.5585 45.8008 17.9034 45.8906 19.8725C45.9807 21.8457 46.002 22.4757 46.002 27.5C46.002 32.5243 45.9807 33.1543 45.8906 35.1275C45.8008 37.0966 45.4881 38.4415 45.0308 39.6182C44.558 40.8347 43.9254 41.8664 42.8969 42.895C41.8684 43.9235 40.8367 44.556 39.6202 45.0288C38.4434 45.4861 37.0986 45.7989 35.1295 45.8887C33.1563 45.9787 32.5263 46 27.502 46C22.4777 46 21.8476 45.9787 19.8744 45.8887C17.9053 45.7989 16.5605 45.4861 15.3837 45.0288C14.1672 44.556 13.1355 43.9235 12.107 42.895C11.0785 41.8664 10.4459 40.8347 9.97322 39.6182C9.51586 38.4415 9.20309 37.0966 9.11328 35.1275C9.02325 33.1543 9.00195 32.5243 9.00195 27.5C9.00195 22.4757 9.02325 21.8457 9.11328 19.8725C9.20309 17.9034 9.51586 16.5585 9.97322 15.3818C10.4459 14.1653 11.0785 13.1336 12.107 12.105C13.1355 11.0765 14.1672 10.444 15.3837 9.97126C16.5605 9.5139 17.9053 9.20114 19.8744 9.11133C21.8476 9.0213 22.4777 9 27.502 9ZM27.502 12.3333C22.5623 12.3333 21.9771 12.3522 20.0264 12.4412C18.2226 12.5235 17.2431 12.8248 16.5912 13.0782C15.7277 13.4138 15.1114 13.8147 14.464 14.4621C13.8166 15.1094 13.4157 15.7257 13.0801 16.5892C12.8268 17.2411 12.5254 18.2207 12.4432 20.0244C12.3542 21.9752 12.3353 22.5603 12.3353 27.5C12.3353 32.4397 12.3542 33.0248 12.4432 34.9756C12.5254 36.7793 12.8268 37.7589 13.0801 38.4108C13.4157 39.2743 13.8167 39.8906 14.464 40.5379C15.1114 41.1853 15.7277 41.5862 16.5912 41.9218C17.2431 42.1752 18.2226 42.4765 20.0264 42.5588C21.9769 42.6478 22.5619 42.6667 27.502 42.6667C32.442 42.6667 33.0271 42.6478 34.9775 42.5588C36.7813 42.4765 37.7608 42.1752 38.4127 41.9218C39.2763 41.5862 39.8925 41.1853 40.5399 40.5379C41.1873 39.8906 41.5882 39.2743 41.9238 38.4108C42.1771 37.7589 42.4785 36.7793 42.5607 34.9756C42.6498 33.0248 42.6686 32.4397 42.6686 27.5C42.6686 22.5603 42.6498 21.9752 42.5607 20.0244C42.4785 18.2207 42.1771 17.2411 41.9238 16.5892C41.5882 15.7257 41.1873 15.1094 40.5399 14.4621C39.8925 13.8147 39.2763 13.4138 38.4127 13.0782C37.7608 12.8248 36.7813 12.5235 34.9775 12.4412C33.0268 12.3522 32.4417 12.3333 27.502 12.3333ZM37.0019 27.5C37.0019 22.2533 32.7487 18 27.502 18C22.2552 18 18.002 22.2533 18.002 27.5C18.002 32.7467 22.2552 37 27.502 37C32.7487 37 37.0019 32.7467 37.0019 27.5ZM27.502 33.6667C30.9077 33.6667 33.6686 30.9058 33.6686 27.5C33.6686 24.0942 30.9077 21.3333 27.502 21.3333C24.0962 21.3333 21.3353 24.0942 21.3353 27.5C21.3353 30.9058 24.0962 33.6667 27.502 33.6667ZM37.3773 19.8446C38.6034 19.8446 39.5973 18.8508 39.5973 17.6247C39.5973 16.3986 38.6034 15.4046 37.3773 15.4046C36.1513 15.4046 35.1573 16.3986 35.1573 17.6247C35.1573 18.8508 36.1513 19.8446 37.3773 19.8446Z" fill="white"/>
</svg>
