<svg width="32" height="32" viewBox="0 0 32 32" fill="none" xmlns="http://www.w3.org/2000/svg">
<g clip-path="url(#clip0)">
<path d="M23.9912 32.0416C18.6519 32.0416 13.319 32.0416 7.97975 32.0416C7.69774 31.9915 7.40948 31.9414 7.12747 31.885C2.93505 31.039 -0.0228268 27.4356 -0.0228268 23.1554C-0.0290935 18.4053 -0.0290935 13.6489 -0.0228268 8.89871C-0.0228268 8.32844 0.02104 7.7519 0.127574 7.1879C0.773044 3.70362 3.51159 0.921205 6.99587 0.200534C7.61001 0.0752004 8.25548 0.0188001 8.88842 0.0125334C13.6198 0 18.3511 0.0062667 23.0825 0C24.3484 0 25.5704 0.225601 26.7172 0.75827C29.3554 1.98028 31.0475 3.99815 31.7556 6.82443C31.8559 7.21297 31.9185 7.61404 31.9937 8.01511C31.9937 13.3543 31.9937 18.6936 31.9937 24.0328C31.9687 24.1205 31.9436 24.2083 31.9311 24.3023C31.8183 25.1608 31.6052 25.9943 31.2355 26.7776C30.0072 29.4033 27.9956 31.0954 25.1693 31.7972C24.787 31.8975 24.386 31.9602 23.9912 32.0416ZM29.1299 16.0365C29.1361 16.0365 29.1361 16.0365 29.1424 16.0365C29.1424 13.7115 29.1424 11.3866 29.1424 9.06164C29.1424 8.34097 29.0672 7.63284 28.8353 6.9435C28.0708 4.63736 25.8273 2.83881 23.0073 2.85761C18.3261 2.88895 13.6448 2.86388 8.96362 2.86388C8.26175 2.86388 7.57868 2.95161 6.90814 3.17095C4.63333 3.92295 2.79719 6.1539 2.82225 9.03031C2.85985 13.6927 2.82852 18.3489 2.83479 23.0113C2.83479 23.475 2.86612 23.9513 2.95385 24.4088C3.48652 27.1097 5.92427 29.2028 8.93228 29.1903C13.6323 29.1589 18.3323 29.1777 23.0386 29.184C24.0476 29.184 25.0126 29.0023 25.8962 28.5197C27.8828 27.4293 29.0484 25.7624 29.111 23.4813C29.1863 21.006 29.1299 18.5181 29.1299 16.0365Z" fill="#8F3F4E"/>
<path d="M23.9911 32.0416C24.386 31.9602 24.787 31.8975 25.1756 31.8035C27.9956 31.1016 30.0072 29.4096 31.2417 26.7839C31.6115 26.0005 31.8245 25.1671 31.9373 24.3085C31.9499 24.2145 31.9812 24.1268 32 24.0391C32 26.7087 32 29.3783 32 32.0479C29.3304 32.0416 26.6608 32.0416 23.9911 32.0416Z" fill="white"/>
<path d="M15.9886 24.2772C11.4327 24.2772 7.72281 20.561 7.72908 16.0114C7.73535 11.4681 11.439 7.7707 15.9761 7.76444C20.5257 7.76444 24.2418 11.4806 24.2356 16.0302C24.2356 20.5736 20.5319 24.2772 15.9886 24.2772ZM15.9949 10.6283C13.0056 10.6221 10.593 13.0222 10.593 16.0177C10.593 19.0006 12.968 21.3945 15.9573 21.4133C18.9402 21.4321 21.3591 19.0382 21.3779 16.0427C21.3905 13.0535 18.9903 10.6409 15.9949 10.6283Z" fill="#8F3F4E"/>
<path d="M24.574 9.52538C23.4271 9.51911 22.4871 8.57911 22.4934 7.43857C22.4997 6.3043 23.4647 5.34549 24.5928 5.35803C25.7333 5.37056 26.6796 6.3231 26.6733 7.45737C26.667 8.59791 25.727 9.53165 24.574 9.52538Z" fill="#8F3F4E"/>
<path d="M15.9948 10.6283C18.9903 10.6346 21.3905 13.0535 21.3779 16.0427C21.3654 19.0382 18.9465 21.4384 15.9573 21.4133C12.968 21.3945 10.593 18.9944 10.593 16.0177C10.5992 13.0222 13.0056 10.6221 15.9948 10.6283Z" fill="white"/>
</g>
<defs>
<clipPath id="clip0">
<rect width="32" height="32" fill="white"/>
</clipPath>
</defs>
</svg>
