<svg width="32" height="32" viewBox="0 0 32 32" fill="none" xmlns="http://www.w3.org/2000/svg">
<g clip-path="url(#clip0)">
<path d="M18.595 32C16.3376 32 14.1319 32 11.909 32C11.909 25.2967 11.909 18.6107 11.909 11.9075C14.1319 11.9075 16.3376 11.9075 18.6122 11.9075C18.6122 12.7518 18.6122 13.5962 18.6122 14.4061C19.1292 13.9236 19.5772 13.3894 20.1286 12.9586C22.61 11.0459 25.4016 10.9425 28.0898 12.4933C30.1404 13.6824 31.3984 15.4573 31.8809 17.7836C31.9843 18.2833 32.0187 18.8003 32.0187 19.3172C32.036 23.4529 32.0187 27.5886 32.0187 31.7243C32.0187 31.7932 32.0187 31.8622 32.0015 31.9828C29.7958 31.9828 27.5901 31.9828 25.3155 31.9828C25.3155 31.8449 25.3155 31.7071 25.3155 31.5692C25.3155 27.8299 25.3155 24.1077 25.3155 20.3684C25.3155 18.7313 24.3849 17.4389 22.9202 16.9564C21.5244 16.5084 19.8701 17.1632 19.1119 18.4384C18.7328 19.076 18.595 19.748 18.595 20.4718C18.595 24.1422 18.595 27.8126 18.595 31.483C18.595 31.6381 18.595 31.7932 18.595 32Z" fill="#8F3F4E"/>
<path d="M7.3597 31.9828C5.13676 31.9828 2.9483 31.9828 0.725365 31.9828C0.725365 25.2795 0.725365 18.5935 0.725365 11.873C2.9483 11.873 5.13676 11.873 7.3597 11.873C7.3597 18.5762 7.3597 25.2623 7.3597 31.9828Z" fill="#8F3F4E"/>
<path d="M8.04899 4.01518C8.04899 6.23812 6.23962 8.06471 4.01669 8.03025C1.79376 8.01301 0.0188599 6.32428 0.0188599 4.01518C0.0188599 1.68886 1.77653 0.017353 4.05115 0.000120935C6.27409 -0.0171111 8.04899 1.80948 8.04899 4.01518Z" fill="#8F3F4E"/>
</g>
<defs>
<clipPath id="clip0">
<rect width="32" height="32" fill="white"/>
</clipPath>
</defs>
</svg>
