<svg width="56" height="56" viewBox="0 0 56 56" fill="none" xmlns="http://www.w3.org/2000/svg">
<path d="M6.11306 55H48.8908C52.2659 55 55.002 52.264 55.002 48.8889V6.11111C55.002 2.73604 52.2659 0 48.8908 0H6.11306C2.73799 0 0.00195312 2.73604 0.00195312 6.11111V48.8889C0.00195313 52.264 2.73799 55 6.11306 55Z" fill="#8F3F4E"/>
<g filter="url(#filter0_d)">
<path fill-rule="evenodd" clip-rule="evenodd" d="M11.8861 16.8415C9.18815 16.8415 7.00195 14.6382 7.00195 11.9208C7.00195 9.20335 9.18815 7 11.8861 7C14.584 7 16.7689 9.20335 16.7689 11.9208C16.7689 14.6382 14.584 16.8415 11.8861 16.8415ZM47.002 47H38.7832V33.0016C38.7832 29.1637 37.3249 27.0189 34.2871 27.0189C30.9824 27.0189 29.2559 29.2509 29.2559 33.0016V47H21.3353V20.3333H29.2559V23.9253C29.2559 23.9253 31.6374 19.5186 37.2962 19.5186C42.9525 19.5186 47.002 22.9727 47.002 30.1163V47ZM16.0553 47H7.79622V20.3333H16.0553V47Z" fill="white"/>
<path d="M38.7832 47H38.2832V47.5H38.7832V47ZM47.002 47V47.5H47.502V47H47.002ZM29.2559 47V47.5H29.7559V47H29.2559ZM21.3353 47H20.8353V47.5H21.3353V47ZM21.3353 20.3333V19.8333H20.8353V20.3333H21.3353ZM29.2559 20.3333H29.7559V19.8333H29.2559V20.3333ZM29.2559 23.9253H28.7559L29.6957 24.163L29.2559 23.9253ZM7.79622 47H7.29622V47.5H7.79622V47ZM16.0553 47V47.5H16.5553V47H16.0553ZM7.79622 20.3333V19.8333H7.29622V20.3333H7.79622ZM16.0553 20.3333H16.5553V19.8333H16.0553V20.3333ZM6.50195 11.9208C6.50195 14.9108 8.90844 17.3415 11.8861 17.3415V16.3415C9.46786 16.3415 7.50195 14.3656 7.50195 11.9208H6.50195ZM11.8861 6.5C8.90844 6.5 6.50195 8.93079 6.50195 11.9208H7.50195C7.50195 9.47591 9.46786 7.5 11.8861 7.5V6.5ZM17.2689 11.9208C17.2689 8.93096 14.8639 6.5 11.8861 6.5V7.5C14.3041 7.5 16.2689 9.47574 16.2689 11.9208H17.2689ZM11.8861 17.3415C14.8639 17.3415 17.2689 14.9106 17.2689 11.9208H16.2689C16.2689 14.3658 14.3041 16.3415 11.8861 16.3415V17.3415ZM38.7832 47.5H47.002V46.5H38.7832V47.5ZM38.2832 33.0016V47H39.2832V33.0016H38.2832ZM34.2871 27.5189C35.6743 27.5189 36.6361 27.9999 37.271 28.8665C37.9258 29.7603 38.2832 31.1325 38.2832 33.0016H39.2832C39.2832 31.0328 38.9114 29.4136 38.0777 28.2755C37.224 27.1103 35.9377 26.5189 34.2871 26.5189V27.5189ZM29.7559 33.0016C29.7559 31.1943 30.1728 29.8277 30.9184 28.9214C31.6514 28.0303 32.7557 27.5189 34.2871 27.5189V26.5189C32.5138 26.5189 31.1025 27.1234 30.1461 28.2861C29.2022 29.4334 28.7559 31.0581 28.7559 33.0016H29.7559ZM29.7559 47V33.0016H28.7559V47H29.7559ZM21.3353 47.5H29.2559V46.5H21.3353V47.5ZM20.8353 20.3333V47H21.8353V20.3333H20.8353ZM29.2559 19.8333H21.3353V20.8333H29.2559V19.8333ZM29.7559 23.9253V20.3333H28.7559V23.9253H29.7559ZM37.2962 19.0186C34.3255 19.0186 32.2047 20.1786 30.8311 21.3402C30.1462 21.9194 29.6467 22.4989 29.3172 22.9356C29.1523 23.1542 29.0294 23.3378 28.9466 23.4688C28.9052 23.5343 28.8738 23.5868 28.8521 23.6239C28.8412 23.6425 28.8328 23.6573 28.8268 23.668C28.8238 23.6734 28.8214 23.6777 28.8196 23.681C28.8187 23.6826 28.818 23.684 28.8174 23.6851C28.8171 23.6856 28.8168 23.6861 28.8166 23.6866C28.8164 23.6868 28.8163 23.687 28.8162 23.6871C28.8161 23.6874 28.816 23.6876 29.2559 23.9253C29.6957 24.163 29.6956 24.1632 29.6955 24.1634C29.6955 24.1635 29.6954 24.1636 29.6954 24.1637C29.6953 24.1639 29.6952 24.1639 29.6952 24.164C29.6952 24.164 29.6953 24.1638 29.6956 24.1633C29.6961 24.1623 29.6972 24.1604 29.6989 24.1574C29.7023 24.1514 29.7079 24.1414 29.7159 24.1277C29.7319 24.1004 29.7571 24.0581 29.7919 24.0031C29.8614 23.8931 29.9688 23.7324 30.1155 23.5379C30.4094 23.1484 30.8591 22.6262 31.4768 22.1038C32.7087 21.062 34.6081 20.0186 37.2962 20.0186V19.0186ZM47.502 30.1163C47.502 26.4508 46.4614 23.6623 44.6275 21.7888C42.7933 19.9151 40.226 19.0186 37.2962 19.0186V20.0186C40.0227 20.0186 42.3082 20.8491 43.9129 22.4884C45.5178 24.1279 46.502 26.6382 46.502 30.1163H47.502ZM47.502 47V30.1163H46.502V47H47.502ZM7.79622 47.5H16.0553V46.5H7.79622V47.5ZM7.29622 20.3333V47H8.29622V20.3333H7.29622ZM16.0553 19.8333H7.79622V20.8333H16.0553V19.8333ZM16.5553 47V20.3333H15.5553V47H16.5553Z" fill="black"/>
</g>
<defs>
<filter id="filter0_d" x="2.50195" y="6.5" width="49" height="49" filterUnits="userSpaceOnUse" color-interpolation-filters="sRGB">
<feFlood flood-opacity="0" result="BackgroundImageFix"/>
<feColorMatrix in="SourceAlpha" type="matrix" values="0 0 0 0 0 0 0 0 0 0 0 0 0 0 0 0 0 0 127 0"/>
<feOffset dy="4"/>
<feGaussianBlur stdDeviation="2"/>
<feColorMatrix type="matrix" values="0 0 0 0 0 0 0 0 0 0 0 0 0 0 0 0 0 0 0.25 0"/>
<feBlend mode="normal" in2="BackgroundImageFix" result="effect1_dropShadow"/>
<feBlend mode="normal" in="SourceGraphic" in2="effect1_dropShadow" result="shape"/>
</filter>
</defs>
</svg>
