<svg width="32" height="32" viewBox="0 0 32 32" fill="none" xmlns="http://www.w3.org/2000/svg">
<path d="M8.68041 26C8.35292 25.9432 8.08002 25.9432 7.75254 25.8864C6.06053 25.6023 4.53228 24.9205 3.22234 23.7274C1.58492 22.3071 0.602468 20.4891 0.165823 18.2733C-0.216242 16.1144 0.0566618 14.0123 1.03911 12.0238C1.96699 10.2058 3.3315 8.84223 5.13266 7.93321C6.60634 7.19463 8.1346 6.91056 9.77202 7.02419C12.0644 7.25144 13.9747 8.21728 15.5576 9.92169C16.8675 11.342 17.6862 13.0464 17.9591 14.9781C18.232 16.9098 18.0137 18.7278 17.195 20.4891C16.3217 22.3639 15.0118 23.7843 13.2652 24.8069C12.119 25.4319 10.8636 25.8296 9.60828 25.8864C9.5537 25.8864 9.49912 25.8864 9.44454 25.9432C9.17163 26 8.89873 26 8.68041 26Z" fill="#8F3F4E"/>
<path d="M18.9416 16.5121C18.9416 14.7509 19.2145 12.9896 19.8149 11.2852C20.1969 10.2626 20.6882 9.29675 21.4523 8.50135C21.9981 7.93321 22.6531 7.59233 23.4172 7.59233C24.2359 7.59233 24.9455 7.99003 25.4913 8.55817C26.2554 9.35356 26.8012 10.3762 27.1287 11.3989C27.8382 13.3873 28.002 15.4326 27.8928 17.5347C27.7837 19.0119 27.5108 20.4323 27.0195 21.7958C26.6375 22.7616 26.2008 23.6138 25.4367 24.3524C24.8363 24.9774 24.1268 25.3751 23.2535 25.2614C22.4893 25.2046 21.8889 24.8069 21.3431 24.2956C20.6882 23.6138 20.2515 22.8184 19.8695 21.9662C19.4874 21.0004 19.2145 20.0346 19.0508 19.0119C18.9962 18.2733 18.9416 17.4211 18.9416 16.5121Z" fill="#8F3F4E"/>
<path d="M28.8207 16.6257C28.8207 14.9213 28.9299 13.3305 29.1482 11.7397C29.2574 10.8875 29.4211 9.97851 29.8032 9.18312C29.9124 9.01267 30.0215 8.84223 30.1307 8.67179C30.2944 8.44454 30.5127 8.44454 30.7311 8.67179C30.8948 8.84223 31.004 9.01267 31.1131 9.23993C31.386 10.0353 31.5498 10.8307 31.6589 11.6261C31.9318 13.501 32.041 15.3758 31.9864 17.3075C31.9318 19.0119 31.8227 20.7163 31.4952 22.4207C31.386 22.8752 31.2223 23.3298 31.1131 23.7843C31.0585 24.0115 30.8948 24.2388 30.7311 24.4092C30.5673 24.6365 30.349 24.5797 30.1307 24.4092C29.8578 24.1251 29.7486 23.7843 29.6394 23.4434C29.312 22.4775 29.1482 21.5117 29.0391 20.4891C28.8753 19.1823 28.8207 17.8756 28.8207 16.6257Z" fill="#8F3F4E"/>
</svg>
