<svg width="56" height="55" viewBox="0 0 56 55" fill="none" xmlns="http://www.w3.org/2000/svg">
<path fill-rule="evenodd" clip-rule="evenodd" d="M48.2823 0C51.991 0 55.002 3.01104 55.002 6.71967V48.2803C55.002 51.989 51.9909 55 48.2823 55H6.72162C3.01299 55 0.00195312 51.989 0.00195312 48.2803V6.71967C0.00195312 3.01104 3.01288 0 6.72162 0H48.2823ZM46.1873 14.7513H35.4994L27.8804 33.757L19.2145 14.7513H8.00284V15.4011L11.6137 19.7509C11.9683 20.0704 12.1492 20.5397 12.1011 21.0144V38.1067C12.2062 38.7232 12.0119 39.3531 11.5777 39.8033L7.51547 44.7306V45.3803H19.034V44.7306L14.9717 39.8033C14.5342 39.3541 14.3278 38.7283 14.4121 38.1067V23.3247L24.5225 45.3803H25.696L34.38 23.3247V40.9044C34.38 41.3735 34.38 41.4639 34.0729 41.7706L30.9497 44.803V45.4527H46.1149V44.803L43.1 41.8429C42.8339 41.64 42.7018 41.3065 42.7569 40.9765V19.2275C42.7018 18.8974 42.8339 18.5639 43.1 18.3611L46.1873 15.4011V14.7513Z" fill="#8F3F4E"/>
</svg>
