<svg width="26" height="24" viewBox="0 0 26 24" fill="none" xmlns="http://www.w3.org/2000/svg">
<path fill-rule="evenodd" clip-rule="evenodd" d="M6.37914 2.19323C6.45817 2.22878 6.52432 2.26328 6.57588 2.29291L6.68499 2.36345C6.79968 2.44175 7.50571 3.04669 9.24905 4.6051C10.3027 5.54703 10.183 6.33805 9.34653 7.17421L9.23388 7.30058C8.78566 7.86765 8.85536 8.67377 9.40591 9.17513L12.7617 12.2241L12.8477 12.314L16.299 15.2544C16.8721 15.7434 17.7434 15.7512 18.3147 15.2596C19.2527 14.4549 20.2425 14.3096 21.363 15.2804L23.7343 17.3637C23.8172 17.4397 23.8619 17.4825 23.8737 17.4964C23.9478 17.573 24.0243 17.6676 24.1045 17.8065C24.4623 18.426 24.4282 19.0864 23.6743 19.8715L22.5282 21.0498L22.1315 21.4468C22.044 21.551 21.9593 21.6336 21.8179 21.7241C21.1974 22.1214 20.3324 22.132 19.1078 21.4181L17.7839 20.6247C17.5785 20.4998 17.3639 20.3679 17.1413 20.2296C15.8696 19.4397 14.5982 18.6046 13.4135 17.763C12.5365 17.1401 11.7412 16.5372 11.0469 15.9636C10.5515 15.5543 10.1122 15.1635 9.73466 14.7946C9.29817 14.4347 8.8852 14.0687 8.45418 13.661C7.82307 13.064 7.16057 12.3845 6.47618 11.6382C5.51951 10.595 4.56862 9.47546 3.66812 8.35569L3.00998 7.52516L2.50463 6.86728C1.51846 5.67211 1.48627 4.90898 1.91211 4.34761C2.0041 4.22635 2.09119 4.1502 2.12718 4.12672L3.33106 3.11444C3.50951 2.96587 3.70073 2.80751 3.90488 2.63933C4.7987 1.90303 5.62555 1.8542 6.37914 2.19323ZM23.0523 22.4177L23.0916 22.3713L23.8012 21.6553C24.0396 21.4115 24.3176 21.1249 24.6352 20.7944C25.8284 19.5518 25.8958 18.2441 25.2583 17.1403C25.142 16.9388 25.0232 16.7804 24.9217 16.6671L24.7814 16.5206C24.5609 16.3065 23.8315 15.6555 22.2353 14.2734C20.5422 12.8064 18.8361 13.0568 17.4463 14.2492L17.384 14.2823C17.3131 14.304 17.2222 14.2907 17.1635 14.2406L13.7783 11.3568L13.7346 11.3078L10.3025 8.18961C10.2653 8.15577 10.2647 8.14018 10.2882 8.11677C11.6061 6.7992 11.8561 5.14859 10.1371 3.61187L8.17586 1.87624C7.83023 1.57627 7.62383 1.40375 7.51835 1.32328L7.46256 1.28289C7.3852 1.21971 7.18946 1.09687 6.92582 0.978266C5.74005 0.444805 4.37563 0.525392 3.0577 1.61106L1.97466 2.51257L1.32429 3.06767C1.24423 3.11199 1.04495 3.28623 0.850566 3.54247C0.0822632 4.55529 0.101041 5.91591 1.27296 7.45775L2.17093 8.6143C2.31613 8.79852 2.46931 8.991 2.6298 9.19057C3.54712 10.3312 4.51609 11.4721 5.49416 12.5386C6.19864 13.3068 6.88274 14.0084 7.53852 14.6288C7.99193 15.0577 8.42882 15.4449 8.84759 15.7869C9.20925 16.144 9.67581 16.559 10.1982 16.9906C10.9195 17.5866 11.7401 18.2086 12.6418 18.8491C13.8512 19.7082 15.1448 20.5579 16.4382 21.3613L17.3976 21.9483L18.167 22.4042C19.9295 23.5292 21.4292 23.555 22.5364 22.846C22.7644 22.7 22.9351 22.5489 23.0523 22.4177Z" fill="#8F3F4E"/>
</svg>
